<?xml version="1.0" encoding="UTF-8"?>
<svg id="Calque_1" xmlns="http://www.w3.org/2000/svg" version="1.1" viewBox="0 0 200 200">
  <!-- Generator: Adobe Illustrator 29.6.1, SVG Export Plug-In . SVG Version: 2.1.1 Build 9)  -->
  <defs>
    <style>
      .st0 {
        fill: #fff;
      }
    </style>
  </defs>
  <path class="st0" d="M147.45,110.19c16.97,12.56,39.56,40.03,38.85,62.41-.37,11.61-6.48,12.68-16.5,14.7H28.33c-18.61-3.09-13.83-19.36-9.29-32.41,6.59-18.99,19.72-33.15,35.67-44.91,2.66-1.96,8.11-6.4,11.38-5.35,2.71,2.24,5.82,3.67,8.86,5.36,1.91,1.06,2.96,2.12,5.74,3.11,18.88,6.75,40.03,3.15,54.93-9.89.77-.15,10.47,5.95,11.84,6.97Z"/>
  <path class="st0" d="M122.51,17.95c45.51,25.45,25.18,94.92-28.11,90.15-33.13-2.97-52.15-41.17-36.56-70.23,12.09-22.53,41.8-32.7,64.67-19.91Z"/>
</svg>