<?xml version="1.0" encoding="UTF-8"?>
<svg id="Calque_1" xmlns="http://www.w3.org/2000/svg" version="1.1" viewBox="0 0 220 220">
  <!-- Generator: Adobe Illustrator 29.6.1, SVG Export Plug-In . SVG Version: 2.1.1 Build 9)  -->
  <defs>
    <style>
      .st0 {
        fill: #356c3b;
      }
    </style>
  </defs>
  <path class="st0" d="M115.16,0l10.11,1.01c48.33,6.64,87.12,45.37,93.72,93.74l1.01,10.11v10.27l-1.01,10.11c-6.6,48.37-45.39,87.1-93.72,93.74l-10.11,1.01h-10.26l-10.11-1.01C46.45,212.34,7.67,173.61,1.06,125.24L.05,115.13c.11-3.41-.15-6.86,0-10.27C2.55,48.6,48.64,2.5,104.89,0h10.26ZM48.03,173.71c7.49,7.11,18.27,11.8,28.62,12.32,22.07,1.11,45.06-.87,67.23,0,22.19-1.46,40.55-19.68,41.91-41.92-.98-22.35,1.26-45.75,0-67.98-1.23-21.74-19.89-40.5-41.67-41.68-22.5-1.22-46.09.95-68.7,0-21.92,1.74-39.86,19.96-41.18,41.92.94,22.29-1.21,45.56,0,67.73.58,10.72,6.03,22.25,13.78,29.6Z"/>
  <path class="st0" d="M78.2,41.38c20.61-1.12,42.05.7,62.75-.08,20.13.87,35.37,14.19,37.75,34.36v68.93c-1.58,18.17-16.41,32.86-34.58,34.34h-68.18c-18.27-1.49-33.13-16.29-34.59-34.58v-68.46c2.16-19.79,17.07-33.43,36.86-34.51ZM146.28,73.74c6.33,6.51,16.13-2.82,10.3-9.45-6.3-7.17-16.71,2.86-10.3,9.45ZM84.99,81.79c-18.44,16.28-16.9,45.29,3.2,59.46,28.23,19.89,66.2-5.47,58.9-39.11-6.11-28.14-40.35-39.54-62.1-20.34Z"/>
  <path class="st0" d="M108.69,79.36c24.78-1.17,40.68,26.15,27.59,47.25-11.97,19.29-40.52,19.31-52.51,0-12.53-20.19,1.31-46.14,24.92-47.25Z"/>
</svg>