<?xml version="1.0" encoding="UTF-8"?>
<svg id="Calque_1" xmlns="http://www.w3.org/2000/svg" version="1.1" viewBox="0 0 220 220">
  <!-- Generator: Adobe Illustrator 29.6.1, SVG Export Plug-In . SVG Version: 2.1.1 Build 9)  -->
  <defs>
    <style>
      .st0 {
        fill: #356c3b;
      }
    </style>
  </defs>
  <path class="st0" d="M220,105.11v10.27l-1.01,10.11c-6.37,46.64-42.83,84.67-89.12,92.97l-10.8,1.54h-18.08l-10.8-1.54C43.89,210.16,7.43,172.12,1.06,125.49L.05,115.38c.11-3.41-.15-6.86,0-10.27C2.92,40.63,61.29-7.53,125.26,1.26c52,7.15,92.4,51.37,94.74,103.85ZM183,33.84C128.01-18.07,38.11,2.34,11.35,72.78c-29.9,78.73,39.84,158.82,121.89,140.74,81.85-18.03,110.97-121.89,49.75-179.68Z"/>
  <path class="st0" d="M183,33.84c61.22,57.8,32.09,161.65-49.75,179.68C51.2,231.6-18.55,151.51,11.35,72.78,38.11,2.34,128.01-18.07,183,33.84ZM105.04,119.92c-4.8,4.75-15.3,11.47-7.07,18.15l34.62,23.06c2.84,1.12,7.55,2.95,10.06.44,4.65-4.66,7.21-25.78,8.39-32.92,1.75-10.56,3.39-21.18,4.89-31.78.91-6.39,2.4-13.92,2.73-20.25.5-9.82-7.2-8.49-13.99-6.17-10.68,3.65-22.15,9.1-32.68,13.51-19.44,8.13-40.04,16.17-59.07,25.01-2.1.98-6.28,2.87-7.21,5.01-1.28,2.92.9,4.37,3.23,5.42,2.96,1.34,7.13,2.42,10.32,3.37,10.41,3.11,14.89,5.08,24.75-1.04,15.02-9.31,29.41-20.25,44.24-29.81,2.62-.42,3.26,1.66,1.82,3.53-8.33,8.15-16.74,16.26-25.02,24.47Z"/>
</svg>