<?xml version="1.0" encoding="UTF-8"?>
<svg id="Calque_1" xmlns="http://www.w3.org/2000/svg" version="1.1" viewBox="0 0 220 220">
  <!-- Generator: Adobe Illustrator 29.6.1, SVG Export Plug-In . SVG Version: 2.1.1 Build 9)  -->
  <defs>
    <style>
      .st0 {
        fill: #356c3b;
      }
    </style>
  </defs>
  <path class="st0" d="M114.18,0l10.6,1.01c47.03,6.4,85.11,42.6,93.44,89.39l1.79,13.25v10.02l-1.01,11.09c-6.15,46.9-42.83,85.23-89.37,93.46l-13.24,1.79h-10.51l-10.6-1.01C44.47,212.08,5.66,171.32.53,120.39c-.12-1.23.13-2.62-.49-3.79.1-3.49-.14-7.02,0-10.51C2.33,49.38,47.02,3.63,103.67,0h10.51ZM86.68,46.93h-39.71l48.59,71.01-47.61,55.36h10.39c13.47-15.23,26.45-30.89,39.83-46.2.35-.41,1.9-2.2,2.2-2.2l33.24,48.4h39.71l-50.77-74.19,44.91-52.19h-10.63c-12.18,13.91-23.99,28.16-36.17,42.05-.4.46-2.57,3.02-2.93,2.93l-31.05-44.98Z"/>
  <path class="st0" d="M59.68,53.53h23.58l77.25,112.68-.26.47-22.85-.06-.61-.38c-24.67-36.37-49.99-72.32-74.61-108.72-.87-1.29-1.83-2.57-2.49-3.99Z"/>
</svg>