<?xml version="1.0" encoding="UTF-8"?>
<svg id="Calque_1" xmlns="http://www.w3.org/2000/svg" version="1.1" viewBox="0 0 220 220">
  <!-- Generator: Adobe Illustrator 29.6.1, SVG Export Plug-In . SVG Version: 2.1.1 Build 9)  -->
  <defs>
    <style>
      .st0 {
        fill: #356c3b;
      }
    </style>
  </defs>
  <path class="st0" d="M114.18,0l10.6,1.01c47.03,6.4,85.11,42.6,93.44,89.39l1.79,13.25v10.02l-1.01,11.09c-6.15,46.9-42.83,85.23-89.37,93.46l-13.24,1.79h-10.51l-10.6-1.01C44.47,212.08,5.66,171.32.53,120.39c-.12-1.23.13-2.62-.49-3.79.1-3.49-.14-7.02,0-10.51C2.33,49.38,47.02,3.63,103.67,0h10.51ZM171.26,65.13c-7.12-5.73-23.85-6.51-33-7.18-21.68-1.59-45.03-1.43-66.67.78-13.86,1.42-27.84,1.96-30.7,18.45-2.23,12.88-2.65,27.94-2.24,41.04.26,8.29,1.02,19.5,3.06,27.48,3.47,13.58,18.32,14.4,29.83,15.61,23.92,2.51,50.31,2.55,74.27.25,7.72-.74,19.35-1.54,25.63-6.12,6.75-4.92,6.92-11.55,7.95-19.18,2.53-18.83,2.39-35.67-.74-54.43-1.13-6.77-1.7-12.11-7.4-16.69Z"/>
  <polygon class="st0" points="131.77 109.76 91.7 133.22 91.69 87.02 131.77 109.76"/>
</svg>