<?xml version="1.0" encoding="UTF-8"?>
<svg id="Calque_1" xmlns="http://www.w3.org/2000/svg" version="1.1" viewBox="0 0 220 220">
  <!-- Generator: Adobe Illustrator 29.6.1, SVG Export Plug-In . SVG Version: 2.1.1 Build 9)  -->
  <defs>
    <style>
      .st0 {
        fill: #356c3b;
      }
    </style>
  </defs>
  <path class="st0" d="M115.16,0l10.11,1.01c48.33,6.64,87.12,45.37,93.72,93.74l1.01,10.11v10.27l-1.01,10.11c-6.6,48.37-45.39,87.1-93.72,93.74l-10.11,1.01h-10.26l-10.11-1.01C46.45,212.34,7.67,173.61,1.06,125.24L.05,115.13c.11-3.41-.15-6.86,0-10.27C2.55,48.6,48.64,2.5,104.89,0h10.26ZM46.43,28.92c-9.19.89-16.58,8.23-17.54,17.41v127.36c.98,10.22,9.92,18.03,20.21,17.61h122.35c10.19.22,18.92-7.73,19.73-17.85V46.56c-.94-9.54-8.61-17.06-18.21-17.72l-126.53.08Z"/>
  <path class="st0" d="M46.43,28.92l126.53-.08c9.6.66,17.27,8.18,18.21,17.72v126.89c-.81,10.12-9.54,18.07-19.73,17.85H49.1c-10.29.42-19.22-7.39-20.22-17.61V46.33c.98-9.18,8.37-16.52,17.56-17.41ZM58.54,63.15c-4.34,4.36-2.85,11.35,2.28,14.29,7.31,4.19,19.62.43,18.05-9.5-1.39-8.73-14.78-10.37-20.33-4.79ZM78.99,90.93h-22.97v73.09h22.97v-73.09ZM113.57,90.93h-22.85v73.09h22.85c.07,0,.27-.23.28-.37l.09-40.82c1.08-8.71,7.16-14.38,16.19-12.77,6.19,1.1,10.94,7.59,10.94,13.75v40.21h22.97v-44.12c-.73-13.33-7.42-25.45-21.22-28.4-10.49-2.24-21.64,1.1-28.88,8.97l-.09-9.17c-.02-.14-.18-.34-.28-.37Z"/>
</svg>