<?xml version="1.0" encoding="UTF-8"?>
<svg id="Calque_1" xmlns="http://www.w3.org/2000/svg" version="1.1" viewBox="0 0 595.28 595.28">
  <!-- Generator: Adobe Illustrator 29.6.1, SVG Export Plug-In . SVG Version: 2.1.1 Build 9)  -->
  <defs>
    <style>
      .st0 {
        fill: #396d3d;
      }

      .st1 {
        fill: #fefefe;
      }

      .st2 {
        fill: #366c3b;
      }
    </style>
  </defs>
  <path class="st0" d="M285.28,4.76c171.28-6.18,311.23,130.35,306.35,302.2-4.81,169.48-152.37,299.3-321.33,283.58C107.69,575.41-10.84,429.29,6.08,266.8,20.97,123.83,141.15,9.96,285.28,4.76ZM295.66,9.6C150.07,10.75,27.19,121.5,11.31,266.15c-18.96,172.7,117.95,323.29,291.53,320.6,149.03-2.31,272.92-119.36,283.23-268.04C597.75,150.46,464.26,8.28,295.66,9.6Z"/>
  <path class="st1" d="M295.66,9.6c168.59-1.33,302.08,140.86,290.41,309.1-10.31,148.69-134.21,265.74-283.23,268.04C129.26,589.44-7.65,438.85,11.31,266.15,27.19,121.5,150.07,10.75,295.66,9.6ZM287.36,17.22C152.51,22.07,39.49,123.98,19.98,257.17c-24.12,164.72,98.72,314.25,264.49,322.66,156.18,7.93,290.5-114.78,295.39-271.14,5.15-164.69-127.73-297.4-292.51-291.47Z"/>
  <path class="st2" d="M287.36,17.22c164.78-5.93,297.66,126.78,292.51,291.47-4.89,156.36-139.21,279.07-295.39,271.14C118.7,571.42-4.14,421.89,19.98,257.17,39.49,123.98,152.51,22.07,287.36,17.22ZM301.88,35.2c-6.51.88-12.42,10.29-12.7,16.4-.07,1.53,3.23,1.55,4.49,1.36,7.59-1.14,13.74-10.8,18.67-15.95,0-1.99-8.91-2.02-10.46-1.81ZM286.04,72.83c10.75-.97,21.57-.66,32.37-.68,4.6-.51,10.82.22,11.84-5.81,1.66-9.74-8.1-8.85-14.64-8.76-7.19.11-14.58.57-21.77.72-9.47.2-24.87-3.3-26.1,9.55-.73,7.65.51,17.67.66,25.55.25,13.53-.32,28.16.66,41.56.47,6.43,2.76,10.02,9.52,10.55,9.13.72,20.79-.46,30.11-.72,5.62-.16,14.69.63,19.85-.91,7.27-2.18,5.53-13.41-1.88-13.91l-39.08.33c-.35.08-1.19-.25-1.19-.54v-23.71h36.16c.15,0,2.06-.9,2.37-1.09,4.09-2.66,3.89-10.2-.71-11.99-4.27-1.66-10.99-.44-15.49-.4-7.56.06-15.13-.08-22.68-.01v-19.73ZM189.15,111.25c.26-.29,1.37.69,1.69.91,11.11,7.53,22.12,17.05,32.95,25.18,4.41,3.31,12.89,10.69,17.38,12.73,9.49,4.33,17.95-3.33,13.89-13.2-9.14-20.62-15.13-44.36-24.67-64.61-2.22-4.72-5.17-8.37-10.88-6.27-6.23,2.3-5.05,7.91-3.52,13.06l17.12,45.34c-.29.28-1.36-.68-1.69-.9-13.04-8.95-25.76-19.8-38.49-29.34-6.31-4.72-16.88-15.6-24.53-7.99-4.04,4.01-2.94,8.71-1.39,13.5,6.99,21.59,17.03,42.94,24.52,64.42,4.46,9.04,17.03,5.45,15.28-4.9-5.16-16.2-12.29-31.81-17.64-47.93ZM384.95,72.24c-23.04,2.22-36.89,27.38-38.01,48.51-1.55,29.32,27.86,44.58,53.82,42.06,4.87-.47,10.31-1.53,13.13-5.91,2.1-3.26,7.35-17.08,8.34-21.08,1.61-6.55-1.19-8.81-6.63-11.37-4.97-2.34-13.42-5.85-18.62-7.33-3.87-1.11-7.7-.66-9.49,3.35-4.23,9.47,9.69,10.84,15.08,13.9,3.31,1.88,1.9,5.75.62,8.72-3.04,7.03-12.64,5.67-18.87,4.34-28.87-6.17-23.49-40.6-5.53-55.73,10.5-8.85,29.53-5.14,34.08,8.15,1.61,4.69.66,12.21,6.49,14.28,10.07,3.56,12.37-7.49,10.84-14.99-3.79-18.51-28.08-28.53-45.25-26.88ZM97.36,114.45c-.79-.79-1.51-.34-2.18.24-1.52,1.33-4.51,5.21-5.83,6.97-.73.98-2.44,2.91-2.61,3.96-.44,2.71,1.21,6.62,2.14,9.24,1.55,4.35,2.96,10.97,7.46,4.18,3.85-5.81,2.37-16.67,1.42-23.45-.05-.36-.15-.89-.4-1.14ZM124.34,118.25c-2.49.4-5.12,3.47-6.84,5.27-8.48,8.93-18.12,19.6-25.94,29.09-1.79,2.18-4.59,5.46-4.82,8.34-.32,3.87,3.3,7.2,5.85,9.65,15.77,15.18,33.59,29.24,49.87,43.92,6.08,4.25,10.04.17,14.17-4.12,8.75-9.07,19.75-21.14,27.51-30.98,2.83-3.59,5.26-7.18,1.73-11.43-3.94-4.75-9.56-2.47-12.82,1.73l-24.04,27.19c-6.05-4.4-11.25-10.04-17.14-14.72l-.53-.87c5.21-6.9,11.5-12.99,17.15-19.55,3.88-4.51,11.9-11.68,4.49-16.96-5.29-3.77-9.43,1.61-12.81,5.18-6.65,7.06-12.59,14.85-19.43,21.75l-14.98-12.97c8.03-9.65,16.63-18.86,24.89-28.33,4.61-5.09.3-13.26-6.32-12.21ZM487.39,135.91c-2.42.17-5.07,1.22-7.38,1.97-21.98,7.18-43.29,16.7-65.22,24.06-10.18,2.53-9.22,18.69,2.09,16.62,4.94-.91,11.37-4.99,16.17-5.66,1.11-.15,1.99.18,2.97.68,6.01,7.25,13.43,14.3,19.05,21.78.37.5.98,1.07.76,1.7-2.37,5.14-6.05,10.23-8.12,15.45-1.76,4.44-1.36,8.84,3.41,11.02,7.82,3.57,11.71-3.73,14.94-9.28,11.5-19.78,21.28-40.66,32.47-60.62,4.52-8.15-1.9-18.38-11.15-17.73ZM296.77,176.65l-.72.49-8.65,24.74-27.3.73,21.07,16.84-7.57,26.41,22.72-15.17,22.61,15.17-7.55-26.09,21.39-16.82-27-.86-9-25.44ZM530.97,205.12c-21.66,7.96-44.78,14.47-66.1,23.18-4.84,1.98-7.97,3.89-7.52,9.77,4.78,13.45,8.62,29.56,14.71,42.38,2.18,4.59,6.07,7.05,11.01,4.11,4.51-2.68,3.25-7.88,2.05-11.99-2.64-9.02-6.82-18.04-9.63-27.05-.56-1.75.09-2.56,1.57-3.31,18.18-6.89,37.58-12.27,55.55-19.54,1.74-.7,3.62-1.33,5.12-2.49,7.11-5.47,2.25-17.08-6.77-15.08ZM72.44,206.16c-23.37,3.16-35.31,51.41-7.19,59.61,20.5,5.98,27.77-13.65,37.93-26.45,3.4-4.29,6.97-8.11,13.02-6.5,12.83,3.41,9.26,25.59-1.22,29.72-5.76,2.27-18.24-.4-18.92,8.42s8.13,9.67,14.72,9.18c27.34-2.04,40.69-51.01,12.16-63.06-23.93-10.11-31.65,12.17-43.7,27.02-10.01,12.34-19.92,2.91-16.5-9.92,1.14-4.27,4.51-8.29,8.51-10.17,5.31-2.5,15.21-1.07,15.47-9.13.24-7.6-8.26-9.53-14.28-8.72ZM402.32,260.74c4.63-11.24,7.63-22.91,3.52-34.84l-1.44-2.88c-1.28,3.72-2.09,7.62-3.37,11.34-6.6,19.18-25.82,39.13-43.69,48.36-5.12,2.65-11.32,4.31-15.58,8.29-6.39,5.97-6.61,15.34-13.61,21.51s-11.11-3.26-13.12-8.95c-4.46-12.65-3.78-35.25-23.02-30.13-10.05,2.68-8.09,9.61-9.08,17.57-.84,6.78-4.08,13.59-8.98,18.35-4.47,4.35-7.2,4.94-11.23-.21-3.21-4.11-3.68-8.34-6.15-12.53-4.55-7.73-15.03-11.63-22.4-16.36-15.32-9.84-31.37-26.65-37.76-43.91-1.33-3.59-1.92-7.63-3.19-11-.25-.68-.59-1.66-1.3-1.98-4.37,11.56-3.82,23.68,0,35.3-1.47-1.08-8.17-10.53-9.12-10.36-.28.05-.93.72-.86,1.12l15.89,23.59c.53.28.07.82-.19.87-1.12.22-14.11-14.43-15.73-16.44-6.92-8.6-12.74-18.17-16.62-28.54-.5.06-.58,1.51-.64,1.94-2.08,15,5.64,26.48,16.22,35.95,3.49,3.13,18.35,13.9,19.37,16.97.35,1.06.43,2.16.36,3.27-14.73-9.03-27.54-21.3-39.46-33.73-.84-.88-3.07-3.95-3.98-4.33s-.53,2.28-.48,2.56c2.36,15.32,13.75,23.9,26.04,31.06,5.24,3.05,12.88,6.14,17.51,9.48,1.86,1.34,2.76,2.98,2.44,5.34-.42.41-6.5-2.26-7.5-2.71-14.33-6.4-27.3-15.55-39.8-24.91l-2.88-1.62c4.58,13.06,13.52,23.02,26.72,27.61,6.93,2.41,15.97,3.08,22.31,5.72,2.37.99,3.23,2.23,2.87,4.92-13.1-1.48-25.97-5.68-37.96-11.01-5.09-2.26-9.91-5.06-14.99-7.33,5.12,11.13,15.87,18.55,26.65,23.7l-.2.87c-7.91-1.07-15.71-3.02-23.58-4.45-.45-.08-.66,0-.45.46.26.55,2.04,2.43,2.6,2.93,7.16,6.42,19.37,13.48,29.06,14.2,9.81.73,18.59-1.66,28.2-2.42-.07.37.13,1.13-.04,1.34-.16.19-4.13,1.1-4.8,1.25-11.72,2.73-24.23,2.65-36.17,1.55-2.47-.23-4.99-.67-7.44-1.03,6.91,7.5,18.26,12.43,28.56,11.78,8.45-.54,16.59-5.45,25.07-6.24l-7.03,3.52c-9.33,4.06-19.04,6.72-29.3,6.86,3.04,3.07,7.31,5.03,11.33,6.48,5.28,1.91,13.36,4.34,18.9,3.85,7.04-.62,12.03-5.51,18.04-8.6-1.05,2.17-3.47,4.23-5.4,5.67-7.45,5.59-17.45,8.01-26.62,8.85-.17.81.1.56.44.77.63.4,2.73,1.58,3.36,1.82,6.27,2.36,18.63,2.81,25.69,4.07,4.28.76,5.13,3.88,10.84,2.01.95-.31,2.91-1.64,3.51-1.7.48-.04,1.62,1.27,2.52,1.51,3.45.92,5.84-1.82,8.67-3.12,6.19-2.84,8.3-2.4,12.25-8.86l3.31-5.85c.72,5.34,4.85,12.53,4.46,17.77-.57,7.79-10.7,15.92-16.95,19.74-13.44,8.22-30,11.56-44.88,16.36-2.56,1.21,2.6,3.67,3.73,4.09,9.64,3.52,21.97-4.15,30.46-8.64,6.1-3.23,12.08-6.68,17.75-10.63,2.8-1.95,4.67-4.85,8.54-4.09.35,2.56-.16,3.36-1.45,5.3-4.91,7.4-12.68,15.36-20.92,18.88-2.05.87-5.85,2.3-7.95,2.79-.52.12-.57.04-.49-.49.16-1.01,1.2-2.1,1.04-3.29-2.81,1.4-12.36,5.61-12.79,8.85-.5,3.76,7.05,3.11,9.52,2.93,5.86-.44,9.94-3.1,15.04-5.55.38.41-4.04,8.86-4.56,10.15-1.25,3.12-3.46,8.61,1.98,8.9,4.79.26,13.25-9.01,17.11-11.78.14,3.91-7.2,19.8,1.17,19.02,5.94-.56,12.51-13.22,16.82-16.94.93,4.84,1.38,10.58,2.94,15.23,1.04,3.09,2.79,5.03,6.35,3.92,4.57-1.42,5.29-12.91,6.28-16.91.11-.45-.02-.88.52-1.2,3.43,3.66,10.25,16.28,15.83,15.5,7.97-1.11,2.57-12.51,1.82-17.23,4.24,2.75,8.24,6.4,12.75,8.7,2.04,1.04,4.04,2.23,6.24.58,3.35-2.51.48-7.47-.98-10.34-.96-1.89-2.23-3.7-3.29-5.53,1.96-.14,3.49,1.25,5.2,1.89,4.45,1.67,9.38,3,14.12,1.67.61-.17,3.49-1.71,3.55-2.06.11-.66-1.25-2.9-1.78-3.39-1.28-1.16-11.96-7.63-13.57-8.23-1.03-.39-2.36-.73-2.64.6.02.48,4.91,2.95,5.34,3.62,1.13,1.76-3.6.29-4.25.1-6.82-2.05-11.41-6.51-16.18-11.5-2.2-2.3-6.87-7.11-8.42-9.58-.53-.85-.9-1.6-.69-2.63.18-.86,2.18-3.39,3.17-2.28,13.56,9.66,34.13,29.27,52.3,24.15,1.26-.36,5.97-2.54,6.42-3.62.28-.67-.43-.48-.76-.6-16.96-6.17-39.17-9.79-52.88-21.88-2.97-2.61-9.31-9.23-9.69-13.15-.5-5.2,5.29-11.6,6.93-16.44.52-.14.57.14.87.34,2.5,1.73,5.42,5.82,7.95,7.97,3.52,3,8.19,5.03,12.55,6.48,13.18,1.02,25.31.19,38.22-2.45,3.64-.74,8.09-1.53,10.32-4.91.23-.35.55-.26,0-.7-10.16-2.42-21.52-5.17-27.69-14.35,5.9,2.07,11.05,8,17.48,8.64,7.67.77,20.34-4.66,26.79-8.85.95-.62,2.18-1.24,2.8-2.22-10.7-.12-21.67-2.87-31.67-6.57-.98-.36-4.59-1.62-5.14-2.05-.49-.38-.13-1.26-.21-1.76,13.28,5.03,26.95,9.52,40.93,4.07,5.07-1.98,8.93-4.92,12.96-8.47.23-.21.66.02.44-.79-10.38,1.01-21.23,1.96-31.68,1.4-3.5-.19-11.36-1.23-14.25-3.04-.35-.22-.61.02-.44-.78,5.09-.34,10.03,1.26,15.06,1.72,13.7,1.28,31.04-2.58,40.67-12.96,1.38-1.49,2.54-3.26,3.8-4.86-2.86,0-5.87,1.34-8.71,2.02-3.6.86-7.23,1.62-10.89,2.26l-7.39.39c5.82-3.15,11.71-6.55,17.06-10.45,4.82-3.51,11.21-8.26,12.18-14.46-16.33,9.23-34.16,16.69-53.12,17.98-.13-.09,1.49-2.35,1.73-2.59,2.71-2.68,16.71-4.86,21.37-6.31,10.44-3.25,18.39-8.12,24.59-17.29,1.83-2.71,4.84-8.26,5.58-11.38.13-.53.01-.57-.5-.49-2.23,1.97-4.78,3.56-7.26,5.2-10.79,7.11-22.33,15.17-33.43,21.59-3.26,1.89-6.01,3-9.66,4.01-.39-.54.58-3.69.96-4.4,2.05-3.74,12.82-7.08,17.04-9.27,11.43-5.92,21.56-14.55,26.7-26.59,1.35-3.16,2.76-6.83,2.54-10.27-8.49,7.99-16.49,16.53-24.91,24.58-6,5.73-11.91,11.42-19.39,15.21-.07.02-.78-1.17-.8-1.27-.09-.55,4.52-6.29,5.29-7.04,5.34-5.18,11.64-8.96,16.97-14.87,7.86-8.7,15.74-21.76,12.97-33.92-2.75,3.76-4.49,8.29-6.86,12.34-5.48,9.41-15.83,22.71-23.41,30.57-.6.63-1.15,1.59-1.9.51,4.25-6.02,9.11-12.24,12.17-18.97.76-1.68,1.86-4.07,1.85-5.77-3.09,2.87-5.57,8.09-8.53,10.84-.45.42-.44.77-1.33.57ZM501.56,325.2c-16.43,2.25-14.11,28.06,3.02,26.9,18.02-1.22,15.84-29.48-3.02-26.9ZM91.83,326.94c-15.87,1.73-15.9,25.56-.09,26.89,20.27,1.7,18.83-28.93.09-26.89ZM471.53,425.82c.86.03,1.73-.06,2.59,0,7.7.55,15.9,2.11,23.54,2.42,3.82.15,8.05-.32,9.01-4.82,1.05-4.89-3.42-6.58-7.38-7.19-8.16-1.25-17.56-.78-25.85-1.49-2.48-.21-4.06-.29-4.6-3.02-.92-4.72-1.04-16.38-3.71-19.82-3.59-4.65-9.86-1.45-9.74,4.04l6.09,32.99c-5.43-3.29-10.24-8.26-15.6-11.56-3.43-2.11-8.32-2.78-9.74,1.97-.96,3.23.41,5.11,2.68,7.16,11.04,9.95,25.59,18.32,37.08,27.98,6.57,4.26,12.65-2.77,7.26-8.81-3.36-3.76-8.53-4.32-10.53-9.72-.24-.65-1.12-3.61-1.12-4.07v-6.06ZM132.74,437.58c6.28,1.54,11.91.71,16.06-4.53,5.15-6.49,4.02-12.53-.35-18.97-2.28-3.36-11.99-16.38-14.69-18.18-2.24-1.49-4.4-1.1-6.52.35-8.89,7.03-18.01,13.8-26.84,20.92-2.35,1.89-10.33,7.68-11.19,9.92s-.27,3.39.82,5.26c2.82,4.84,13.91,18.37,18.37,21.43,7.51,5.15,17.84,4.31,22.32-4.2.63-1.19,2.01-5.09,2.01-6.29v-5.71ZM422.05,437.06v31.66c-3.94-3.62-7.02-8.12-10.72-11.95-2.86-2.96-8.23-7.5-11.77-2.76-3.01,4.04,1.46,8.57,3.97,11.6,7.71,9.3,17.5,20.51,25.95,29.07,2.44,2.47,4.96,5.38,8.79,3.59,6.05-2.82,2.2-9.04-.99-12.44-1-1.06-2.52-1.82-3.48-3.1-3.35-4.49-2.13-10.24-1.73-15.4l28.21,8.3c2.65.72,7.38-3.17,7.39-5.71,0-2.27-3.07-5.16-5.15-5.88l-30.09-8.15,1.04-19.55c-.26-2.42-1.03-4.91-3.48-5.87-4.69-1.83-7.51,2.38-7.96,6.57ZM164.84,434.56c-2.03.29-3.43,1.4-4.94,2.67-9.49,10.89-21.76,20.71-30.95,31.68-2.6,3.11-4.13,6.62-.18,9.51,2.86,2.1,5.42.87,7.95-1.04,9.47-11.46,23.39-21.8,32.37-33.39.5-.64,2.81-4.63,2.71-5.14-.06-.28-2.84-3.76-3.27-3.99-1.12-.59-2.46-.47-3.67-.3ZM226.87,460.77c-4.34-.74-4.95,3.69-8.64-.53-2.15-2.45-3.68-6.26-6.85-7.69-4.97-2.25-10.1,1.88-9.43,7.18,3.04.96,4.67-2.4,7.4-.99,1.59.82,4.09,5.68,6.1,7.4.58.49,4.65,3.19,5.02,3.17,2.93-2.37,7.44-4,6.41-8.54ZM202.3,507.48l-1.08-41.66c-.8-7.03-8.25-9.41-12.56-3.3-8.84,12.54-15.67,28.42-23.9,41.51-1.36,2.88.57,5.68,3.28,6.73,3.51,1.36,5.18-.66,7.06-3.31,5.1-7.2,9.42-16.61,14.11-24.3.48-.79,1.03-1.89,1.56-2.57.22-.29,0-.63.79-.43.09,3.98-.1,7.97-.01,11.95.02.82.35,1.58.37,2.39.16,6.82-.87,26.39,2.6,31.31,3.26,4.63,8.01,2.7,10.82-1.25,7.93-14.07,16.83-27.7,23.91-42.19.23-6.9-5.74-8.5-9.94-3.03-5.97,7.78-10.31,19.35-16.04,27.57l-.98.58ZM381.49,468.14c-24.28,1.89-33.55,26.05-20.08,45.48,8.76,12.63,20,18.03,34.81,11.12,30.01-14.01,10.42-58.56-14.73-56.6ZM239.25,482.64c-2.49.34-4.25,2.98-4.77,5.29-2.53,19-19.01,47.44,7.96,55.73,8.2,2.52,17.96,2.97,24.06-3.98,5.68-6.47,10.08-28.57,11.83-37.66.77-4.02,2.35-10.67-3.56-11.45-4.94-.66-6.11,3.34-7.24,7.23-2.45,8.43-3.71,17.52-6.15,26.03s-4.73,13.57-15.13,10.82c-8.94-2.36-8.42-7.62-7.16-15.46,1.5-9.31,5.99-21.33,6.48-30.2.09-1.61.09-3.25-1.05-4.52-1-1.12-3.78-2.03-5.27-1.83ZM342.11,513.02c8.56-7.95,5.06-23.01-6.79-24.87-5.1-.8-21.23,2.19-26.8,3.58-7.18,1.79-5.59,6.09-4.73,12.02,1.71,11.77,4.18,28.2,7.27,39.45,1.04,3.77,2.41,5.46,6.61,5.08,6.03-.55,14.94-2.79,20.98-4.28s10.55-1.96,13.55-7.9c5.21-10.32.06-19.35-10.1-23.08Z"/>
  <path class="st1" d="M402.32,260.74c.89.19.88-.15,1.33-.57,2.97-2.76,5.45-7.97,8.53-10.84.02,1.69-1.08,4.09-1.85,5.77-3.06,6.73-7.92,12.95-12.17,18.97.75,1.07,1.3.11,1.9-.51,7.58-7.86,17.93-21.16,23.41-30.57,2.36-4.06,4.11-8.58,6.86-12.34,2.78,12.16-5.11,25.22-12.97,33.92-5.33,5.9-11.63,9.68-16.97,14.87-.77.75-5.39,6.49-5.29,7.04.02.11.73,1.29.8,1.27,7.48-3.8,13.4-9.49,19.39-15.21,8.42-8.05,16.42-16.59,24.91-24.58.22,3.44-1.19,7.11-2.54,10.27-5.14,12.05-15.27,20.67-26.7,26.59-4.22,2.19-14.98,5.52-17.04,9.27-.39.7-1.35,3.86-.96,4.4,3.65-1.01,6.4-2.12,9.66-4.01,11.1-6.42,22.64-14.49,33.43-21.59,2.48-1.63,5.03-3.22,7.26-5.2.51-.08.62-.04.5.49-.74,3.11-3.75,8.67-5.58,11.38-6.2,9.17-14.14,14.03-24.59,17.29-4.67,1.45-18.66,3.63-21.37,6.31-.24.24-1.86,2.5-1.73,2.59,18.96-1.29,36.79-8.76,53.12-17.98-.97,6.2-7.36,10.95-12.18,14.46-5.35,3.9-11.24,7.3-17.06,10.45l7.39-.39c3.65-.64,7.28-1.41,10.89-2.26,2.84-.68,5.85-2.01,8.71-2.02-1.26,1.6-2.41,3.36-3.8,4.86-9.63,10.38-26.97,14.24-40.67,12.96-5.02-.47-9.96-2.07-15.06-1.72-.17.8.09.55.44.78,2.89,1.82,10.75,2.85,14.25,3.04,10.45.57,21.3-.38,31.68-1.4.22.81-.21.58-.44.79-4.03,3.55-7.89,6.49-12.96,8.47-13.97,5.45-27.65.96-40.93-4.07.09.5-.27,1.39.21,1.76.55.43,4.16,1.68,5.14,2.05,10,3.71,20.97,6.45,31.67,6.57-.62.98-1.84,1.6-2.8,2.22-6.44,4.19-19.12,9.62-26.79,8.85-6.43-.65-11.58-6.57-17.48-8.64,6.17,9.18,17.53,11.93,27.69,14.35.55.44.23.35,0,.7-2.23,3.38-6.68,4.17-10.32,4.91-12.92,2.63-25.04,3.47-38.22,2.45-4.36-1.45-9.03-3.48-12.55-6.48-2.53-2.16-5.44-6.24-7.95-7.97-.29-.2-.34-.48-.87-.34-1.63,4.84-7.42,11.24-6.93,16.44.38,3.92,6.72,10.54,9.69,13.15,13.71,12.09,35.92,15.71,52.88,21.88.33.12,1.04-.06.76.6-.45,1.08-5.15,3.26-6.42,3.62-18.17,5.12-38.73-14.5-52.3-24.15-.99-1.11-2.99,1.42-3.17,2.28-.21,1.03.16,1.78.69,2.63,1.55,2.47,6.22,7.28,8.42,9.58,4.77,4.99,9.36,9.45,16.18,11.5.65.2,5.38,1.66,4.25-.1-.43-.67-5.32-3.14-5.34-3.62.29-1.34,1.61-.99,2.64-.6,1.6.6,12.28,7.07,13.57,8.23.54.48,1.89,2.72,1.78,3.39-.06.35-2.94,1.89-3.55,2.06-4.74,1.32-9.67,0-14.12-1.67-1.71-.64-3.24-2.04-5.2-1.89,1.07,1.82,2.34,3.64,3.29,5.53,1.46,2.86,4.33,7.83.98,10.34-2.2,1.64-4.2.46-6.24-.58-4.51-2.31-8.51-5.95-12.75-8.7.75,4.72,6.16,16.12-1.82,17.23-5.58.78-12.4-11.84-15.83-15.5-.55.32-.41.74-.52,1.2-.99,3.99-1.71,15.48-6.28,16.91-3.56,1.11-5.31-.83-6.35-3.92-1.56-4.65-2.01-10.39-2.94-15.23-4.31,3.72-10.88,16.38-16.82,16.94-8.37.79-1.03-15.11-1.17-19.02-3.86,2.77-12.33,12.04-17.11,11.78-5.43-.29-3.23-5.78-1.98-8.9.51-1.29,4.94-9.74,4.56-10.15-5.1,2.45-9.18,5.11-15.04,5.55-2.47.18-10.03.84-9.52-2.93.43-3.24,9.98-7.45,12.79-8.85.16,1.19-.88,2.27-1.04,3.29-.08.52-.03.61.49.49,2.1-.48,5.9-1.91,7.95-2.79,8.24-3.52,16.01-11.48,20.92-18.88,1.29-1.94,1.8-2.74,1.45-5.3-3.87-.76-5.74,2.14-8.54,4.09-5.67,3.95-11.65,7.4-17.75,10.63-8.49,4.49-20.82,12.16-30.46,8.64-1.13-.41-6.29-2.88-3.73-4.09,14.88-4.8,31.43-8.13,44.88-16.36,6.25-3.82,16.38-11.95,16.95-19.74.38-5.24-3.75-12.44-4.46-17.77l-3.31,5.85c-3.95,6.46-6.07,6.01-12.25,8.86-2.83,1.3-5.22,4.04-8.67,3.12-.9-.24-2.04-1.55-2.52-1.51-.59.05-2.56,1.38-3.51,1.7-5.71,1.88-6.55-1.24-10.84-2.01-7.06-1.26-19.42-1.71-25.69-4.07-.63-.24-2.73-1.41-3.36-1.82-.34-.22-.62.03-.44-.77,9.17-.84,19.17-3.26,26.62-8.85,1.93-1.45,4.35-3.51,5.4-5.67-6.01,3.09-11,7.98-18.04,8.6-5.54.49-13.62-1.94-18.9-3.85-4.03-1.45-8.3-3.42-11.33-6.48,10.26-.15,19.97-2.8,29.3-6.86l7.03-3.52c-8.49.79-16.62,5.7-25.07,6.24-10.3.65-21.65-4.27-28.56-11.78,2.45.37,4.97.81,7.44,1.03,11.94,1.1,24.45,1.18,36.17-1.55.67-.16,4.64-1.06,4.8-1.25.17-.21-.02-.97.04-1.34-9.61.75-18.39,3.14-28.2,2.42-9.69-.72-21.9-7.78-29.06-14.2-.57-.51-2.35-2.38-2.6-2.93-.21-.45,0-.54.45-.46,7.86,1.43,15.67,3.38,23.58,4.45l.2-.87c-10.78-5.15-21.53-12.57-26.65-23.7,5.08,2.26,9.9,5.06,14.99,7.33,11.99,5.33,24.86,9.53,37.96,11.01.35-2.69-.5-3.93-2.87-4.92-6.35-2.64-15.38-3.31-22.31-5.72-13.2-4.59-22.14-14.54-26.72-27.61l2.88,1.62c12.5,9.37,25.46,18.51,39.8,24.91,1,.45,7.08,3.12,7.5,2.71.31-2.36-.58-4-2.44-5.34-4.63-3.34-12.28-6.43-17.51-9.48-12.29-7.16-23.68-15.75-26.04-31.06-.04-.28-.38-2.93.48-2.56s3.14,3.46,3.98,4.33c11.92,12.43,24.73,24.71,39.46,33.73.07-1.11-.01-2.2-.36-3.27-1.01-3.07-15.88-13.84-19.37-16.97-10.58-9.48-18.3-20.95-16.22-35.95.06-.43.14-1.88.64-1.94,3.88,10.37,9.7,19.94,16.62,28.54,1.62,2.01,14.61,16.66,15.73,16.44.26-.05.72-.59.19-.87l-15.89-23.59c-.06-.4.58-1.07.86-1.12.95-.17,7.65,9.28,9.12,10.36-3.81-11.62-4.36-23.74,0-35.3.71.32,1.05,1.3,1.3,1.98,1.27,3.37,1.86,7.41,3.19,11,6.39,17.26,22.44,34.08,37.76,43.91,7.37,4.73,17.85,8.63,22.4,16.36,2.47,4.2,2.94,8.42,6.15,12.53,4.02,5.15,6.75,4.56,11.23.21,4.9-4.76,8.14-11.58,8.98-18.35.99-7.96-.97-14.89,9.08-17.57,19.23-5.13,18.55,17.48,23.02,30.13,2.01,5.7,6.02,15.21,13.12,8.95s7.23-15.54,13.61-21.51c4.27-3.99,10.46-5.65,15.58-8.29,17.87-9.24,37.09-29.18,43.69-48.36,1.28-3.72,2.09-7.62,3.37-11.34l1.44,2.88c4.11,11.93,1.11,23.6-3.52,34.84ZM366.33,294.66c.08-.38-.32-.71-.18-1.04.28-.7,10.49-7.71,12.1-9.01,4.73-3.81,9.34-8.17,11.67-13.94.28-.69,1.59-3.68.11-3.69-.44,0-4.91,5.89-5.7,6.75-9.31,10.11-17.29,12.93-28.62,19.48-8.32,4.81-8.31,7.65-13.12,14.91-5.79,8.72-10.48,8.95-20.06,10.05-1.18.14-1.26.28-1.05,1.41.3,1.65,1.7,5.68,2.36,7.35.85,2.15,2.16,4.79,4.07,6.14l-.17-3.11c1.1.48,6.59,6.43,7.44,5.53l-.15-1.75-2.1-6.21c3.64,3.22,6.64,8.23,11.94,8.65l-4.84-7.79c-.14-.42.09-.7.51-.51.69.3,2.94,2.4,3.88,3.05,3.17,2.19,5.99,4.56,10.14,3.87-.74-1.74-10.04-9.16-10.03-9.86,0-.06.66-.74.85-.76.91-.09,7.32,3.82,8.94,4.46,3.29,1.29,6.5,1.9,9.92.63l-14.09-7.87c-.97-.33-.52-1.53.6-1.33,1.94.35,4.44,1.63,6.56,2.11,4.36,1,9.84,1.73,13.5-1.21l-16.06-5.51c-.35-.07-.25-1.03-.21-1.07.34-.35,7.32.96,8.48,1.03,5.4.33,11.8-.32,16.09-3.8l-21.41-2.47-.05-1.34c8.19-.97,17.71-1.99,23.88-7.96l-21.37,1.31-.78-.79c8.99-3.73,20.19-4.6,26.29-13.16l-19.37,7.45ZM229.12,311.27c-4.26.38-9.01-.28-13.32,0,6.6,5.05,15.37,4.28,23.19,3.46l-.04,1.34-14.15,4.89c-.64.63,1.82,1.37,2.15,1.48,6.31,1.97,12.18-.88,18.26-2.17.24,1.14-.65,1.36-1.41,1.87l-12.77,7.12c7.51,2.71,13.65-2.33,19.72-5.88-.74,2.82-2.91,5.03-5.02,6.91-1.59,1.41-4.43,2.94-5.71,4.33-.4.44-.25.73.21.85,1.54.4,5.28-1.07,6.73-1.88,2.5-1.4,6.18-5.35,8.48-6.06.18-.05.56-.1.51.17-.69,1.44-4.78,6.29-4.45,7.54.11.4.56.65.82.93l9.35-8.3c.2,1.81-.9,3.59-1.22,5.36l1.34.13,6.62-15.17c-6.52-1.21-12.49-4.28-16.34-9.79-1.77-2.53-2.8-5.33-4.63-7.83-5.2-7.12-14.07-9.47-21.36-13.94s-13.85-10.18-18.77-17.25c-1.88-.33-.78,1.92-.42,2.88,1.91,5.06,6.09,9.6,10.14,13.05,1.45,1.24,10.69,7.52,10.85,8.18.08.33-.32.78-.32,1.16-5.2-1.07-10.46-4.04-15.53-5.37-.36-.09-1.76-.51-1.75.19,3.11,1.6,6.11,3.29,9.35,4.67,2.1.89,16.05,5.4,16.25,6.24.11.45-.41.86-.86.87l-19.9-1.39c6.14,5.37,14.99,6,22.5,8.47l.34.52c-2.77.97-5.88,2.17-8.82,2.43ZM292.62,288.78c-.8,2.16.6,4.53-.19,6.9-.27.81-6.78,6.29-8.13,7.79-14.14,15.82-15.71,35.93,1.04,50.54,12.68,11.06,22.71,9.06,30.86-5.48,11.88-21.19-4.15-34.25-7.57-53.8-.96-5.51-.3-10.29-3.97-15.07-4.55-5.93-15.23-4.76-18,2.29-.45,1.14-1.25,5.66-.02,6.12,1.03.39,5.55.39,5.98.7ZM289.43,289.87c-1.55.2-2.75,1.85-3.52,3.09-.29.45-2.3,3.81-.72,3.77.39,0,5.73-4.83,5.89-5.19.54-1.16-.53-1.81-1.65-1.66ZM207.77,312.36c-1.77-1.39-2.81-3.11-5.34-3.13l-24.01-1.77c-.54,1.66,1.56,1.91,2.94,2.43,6.58,2.46,18.35,4.62,25.29,3.82.92-.11,1.43-.29,1.13-1.35ZM415.13,308.16l-23.96,1.13c-2.43.22-3.44,2.17-3.72,4.4,9.3.05,19.85.03,27.68-5.53ZM210.95,320.26c.11-.64-.45-1-.85-1.39-3.01-2.87-11.24-1.79-15.19-1.33-3.55.42-7.05,1.29-10.6,1.68l4.78,1.27c7.26,1.41,14.61.72,21.86-.24ZM383.98,320.61h26.99c.26-1.48-.23-1.54-1.59-1.69-6.33-.67-14.9-1.81-21.08-1.8-.91,0-4.44,1.54-4.62,2.33-.02.09.25,1.13.3,1.17ZM383.29,346.56l-15.92-7.61c-.15.65.36.82.69,1.21,3.67,4.38,9.52,6.75,15.23,6.4ZM211.65,347.95c1.87-1.1,16.16-6.2,16.22-7.09.02-.22-.78-1.05-.66-1.56l-16.26,6.58.7,2.07ZM354.57,347.25l12.31,9.68c.43.1,1.27-1.08,1.37-1.38.28-.81-10.69-8.64-11.97-9.87-.63-.47-1.99,1.17-1.71,1.57ZM238.51,345.9c-1.16,1.39-10.01,7.7-10.22,8.51-.18.67.59,1.74,1.34,1.34,1.21-1.42,9.85-7.71,10.02-8.71.08-.45-.69-1.22-1.14-1.14ZM246.95,345.88l-10.22,12.1c4.08-1.3,7.65-4.12,9.8-7.85.76-1.31,2.36-3.48.42-4.26ZM347.88,346.28c-.72.06-1.68.89-1.11,1.67l11.08,11.42c.44-.6,1.82-1.26,1.4-2.07-1.5-1.16-10.57-11.09-11.38-11.02ZM255.94,347.61l-2.03-.31c-.18,1.45-5.2,9.21-4.89,9.64.05.07,1.42.45,1.68.31.56-.32,4.26-8.49,5.24-9.64ZM349.03,358.68l-7.95-11.42c-.46,5.17,3,9.97,7.95,11.42ZM336.24,356.59c.38.27,1.39-.07,1.32-.79-.04-.41-2.96-7.22-3.24-7.52-.37-.41-1.41-.16-1.55.03-.27.36,3.1,8.02,3.47,8.28ZM281.2,382.56v-5.88l3.46,3.46c-.02-.96.08-1.94-.03-2.9-1.2-9.81-13.62-3.69-9.14,3.6.79-1.05.69-2.7.87-3.95.05-.35.65-.28.85-.19,1,.43,1.98,4.78,2.78,5.52.44.4.61.42,1.21.35ZM315.46,380.83c.24-.28.37-3.26.26-3.9-.28-1.66-1.92-3.95-3.62-4.33-4.63-1.05-7.29,3.44-6.67,7.54l4.15-4.15.35,7.27c.78.14.55-.04.77-.44,1-1.85,1.57-4.39,2.86-6.13.54,1.11.67,2.55,1.18,3.66.13.29.19,1.13.72.49ZM299.2,383.25c-2.84,5.51-5.85,2.2-9.13-.67-1.78,1.98-4.56,3.55-6.05,5.74-2.09,3.08-4.45,10.75-5.85,14.56-1.66,4.54-5.02,12.62-5.81,17.03-.14.79-.33,5.97-.12,6.21.04.05,1.09.3,1.25.3,1.78-.05,6.03-8.49,6.83-10.31,3.05-6.87,4.57-14.68,9.18-20.75,2.06,11.09.68,23.11,5.88,33.4l1.79-2.36c2.32-8.63.69-18.63,1.65-27.42.04-.35.17-1.2.54-1.19.26,0,2.45,3.9,2.78,4.48,4.74,8.5,7.66,18.53,15.39,24.92-4.28-15.15-6.25-32.3-17.83-43.94h-.5ZM256.98,419.59c6.29-4.57,11.45-10.82,15.85-17.19.9-1.3,6.72-10.24,6.58-10.96-.08-.43-3.62-3.35-3.87-3.31-8.08,9.08-15.2,19.64-18.56,31.47ZM332.41,420.28c.1-1.21-.47-2.3-.97-3.35-3.42-7.12-11.02-19.79-15.63-26.25-1.12-1.57-1.76-2.95-3.94-1.84-.75.38-3.49,2.52-3.18,3.39,7.05,9.97,12.92,21.54,23.72,28.05Z"/>
  <path class="st1" d="M189.15,111.25c5.35,16.12,12.49,31.73,17.64,47.93,1.75,10.35-10.82,13.94-15.28,4.9-7.49-21.48-17.53-42.84-24.52-64.42-1.55-4.79-2.64-9.49,1.39-13.5,7.65-7.61,18.22,3.27,24.53,7.99,12.73,9.53,25.45,20.39,38.49,29.34.33.23,1.39,1.18,1.69.9l-17.12-45.34c-1.52-5.15-2.71-10.76,3.52-13.06,5.71-2.1,8.66,1.55,10.88,6.27,9.54,20.25,15.53,43.99,24.67,64.61,4.06,9.87-4.4,17.53-13.89,13.2-4.49-2.04-12.97-9.42-17.38-12.73-10.84-8.13-21.85-17.66-32.95-25.18-.32-.21-1.42-1.19-1.69-.91Z"/>
  <path class="st1" d="M384.95,72.24c17.16-1.65,41.46,8.37,45.25,26.88,1.53,7.5-.77,18.55-10.84,14.99-5.83-2.06-4.88-9.58-6.49-14.28-4.55-13.29-23.58-16.99-34.08-8.15-17.96,15.13-23.34,49.56,5.53,55.73,6.23,1.33,15.83,2.69,18.87-4.34,1.28-2.96,2.69-6.83-.62-8.72-5.39-3.07-19.31-4.43-15.08-13.9,1.79-4.01,5.62-4.46,9.49-3.35,5.2,1.49,13.65,4.99,18.62,7.33,5.44,2.57,8.24,4.82,6.63,11.37-.98,3.99-6.24,17.82-8.34,21.08-2.81,4.37-8.25,5.43-13.13,5.91-25.96,2.52-55.37-12.74-53.82-42.06,1.12-21.12,14.97-46.29,38.01-48.51Z"/>
  <path class="st1" d="M286.04,72.83v19.73c7.55-.06,15.12.08,22.68.01,4.49-.04,11.22-1.25,15.49.4,4.6,1.79,4.8,9.33.71,11.99-.3.2-2.21,1.09-2.37,1.09h-36.16v23.71c0,.29.84.61,1.19.54l39.08-.33c7.4.51,9.14,11.74,1.88,13.91-5.16,1.55-14.23.76-19.85.91-9.32.26-20.98,1.44-30.11.72-6.76-.53-9.04-4.13-9.52-10.55-.99-13.39-.41-28.03-.66-41.56-.15-7.88-1.39-17.9-.66-25.55,1.22-12.85,16.62-9.35,26.1-9.55,7.19-.15,14.58-.61,21.77-.72,6.54-.1,16.3-.99,14.64,8.76-1.02,6.03-7.24,5.3-11.84,5.81-10.8.02-21.62-.29-32.37.68Z"/>
  <path class="st1" d="M124.34,118.25c6.61-1.06,10.93,7.11,6.32,12.21-8.26,9.47-16.86,18.68-24.89,28.33l14.98,12.97c6.84-6.9,12.77-14.7,19.43-21.75,3.37-3.58,7.52-8.96,12.81-5.18,7.4,5.28-.61,12.45-4.49,16.96-5.65,6.56-11.93,12.65-17.15,19.55l.53.87c5.89,4.68,11.09,10.32,17.14,14.72l24.04-27.19c3.26-4.2,8.88-6.48,12.82-1.73,3.53,4.26,1.1,7.84-1.73,11.43-7.75,9.83-18.76,21.9-27.51,30.98-4.13,4.28-8.09,8.36-14.17,4.12-16.27-14.67-34.1-28.74-49.87-43.92-2.54-2.45-6.17-5.78-5.85-9.65.24-2.88,3.03-6.17,4.82-8.34,7.81-9.49,17.45-20.16,25.94-29.09,1.72-1.81,4.35-4.88,6.84-5.27Z"/>
  <path class="st1" d="M72.44,206.16c6.02-.81,14.52,1.11,14.28,8.72-.26,8.05-10.16,6.63-15.47,9.13-4,1.88-7.37,5.9-8.51,10.17-3.42,12.83,6.49,22.26,16.5,9.92,12.05-14.85,19.78-37.13,43.7-27.02,28.53,12.05,15.18,61.02-12.16,63.06-6.58.49-15.38-.54-14.72-9.18s13.15-6.15,18.92-8.42c10.49-4.13,14.05-26.31,1.22-29.72-6.05-1.61-9.62,2.22-13.02,6.5-10.15,12.79-17.42,32.42-37.93,26.45-28.12-8.2-16.18-56.45,7.19-59.61Z"/>
  <path class="st1" d="M487.39,135.91c9.24-.65,15.66,9.58,11.15,17.73-11.2,19.96-20.98,40.84-32.47,60.62-3.23,5.56-7.12,12.86-14.94,9.28-4.77-2.18-5.17-6.58-3.41-11.02,2.07-5.22,5.75-10.31,8.12-15.45.22-.62-.39-1.2-.76-1.7-5.63-7.48-13.04-14.53-19.05-21.78-.98-.5-1.85-.83-2.97-.68-4.8.67-11.22,4.75-16.17,5.66-11.31,2.07-12.27-14.09-2.09-16.62,21.93-7.37,43.25-16.88,65.22-24.06,2.31-.75,4.96-1.8,7.38-1.97ZM448.7,166.27l15.05,17.64,17.82-30.63-32.87,12.99Z"/>
  <path class="st1" d="M530.97,205.12c9.02-2.01,13.88,9.61,6.77,15.08-1.51,1.16-3.38,1.78-5.12,2.49-17.97,7.28-37.37,12.65-55.55,19.54-1.49.75-2.13,1.56-1.57,3.31,2.81,9.01,7,18.03,9.63,27.05,1.2,4.11,2.46,9.31-2.05,11.99-4.95,2.94-8.83.47-11.01-4.11-6.09-12.83-9.93-28.94-14.71-42.38-.45-5.88,2.68-7.79,7.52-9.77,21.32-8.71,44.44-15.22,66.1-23.18Z"/>
  <polygon class="st1" points="296.77 176.65 305.76 202.09 332.76 202.95 311.37 219.78 318.92 245.86 296.31 230.69 273.59 245.86 281.16 219.45 260.09 202.61 287.4 201.88 296.05 177.14 296.77 176.65"/>
  <path class="st1" d="M342.11,513.02c10.16,3.73,15.31,12.76,10.1,23.08-3,5.94-7.69,6.46-13.55,7.9s-14.95,3.73-20.98,4.28c-4.2.38-5.57-1.31-6.61-5.08-3.09-11.25-5.56-27.68-7.27-39.45-.86-5.93-2.45-10.23,4.73-12.02,5.56-1.39,21.69-4.39,26.8-3.58,11.85,1.86,15.35,16.92,6.79,24.87ZM317.56,513.69c6.3-1.33,21.45-1.41,17.79-11.73-2.07-5.84-9.65-4.02-14.43-3.02-1.55.32-4.61.75-5.28,2.33-.93,2.19,1.64,9.74,1.92,12.43ZM321.69,537.94c4.89-.83,15.09-1.96,18.81-5.25,3.32-2.93,1.45-11.53-3.05-12.07-1.31-.15-3.48-.07-4.85.01-4.29.24-8.98,1.28-13.28,1.78l2.37,15.53Z"/>
  <path class="st1" d="M132.74,437.58v5.71c0,1.2-1.39,5.1-2.01,6.29-4.48,8.52-14.81,9.35-22.32,4.2-4.46-3.05-15.55-16.59-18.37-21.43-1.09-1.88-1.65-3.11-.82-5.26s8.84-8.03,11.19-9.92c8.83-7.12,17.94-13.89,26.84-20.92,2.12-1.45,4.28-1.85,6.52-.35,2.7,1.81,12.41,14.82,14.69,18.18,4.37,6.43,5.51,12.48.35,18.97-4.16,5.24-9.79,6.07-16.06,4.53ZM120.33,415.82l.12.99c5.09,4.53,9.89,16.77,18.17,10.21,2.95-2.33,3.19-4.75,1.44-8.02-.67-1.26-7.56-11.31-8.24-11.52-1.18-.36-9.69,7.59-11.5,8.33ZM100.95,431.05l.13.98c3.53,3.54,9.53,13.85,14.87,13.85,3.78,0,8.44-4.09,8.14-8.12-.36-4.86-8.04-12.15-10.56-16.44l-12.58,9.73Z"/>
  <path class="st1" d="M202.3,507.48l.98-.58c5.72-8.22,10.07-19.79,16.04-27.57,4.2-5.48,10.17-3.87,9.94,3.03-7.08,14.48-15.98,28.12-23.91,42.19-2.8,3.95-7.55,5.89-10.82,1.25-3.47-4.93-2.44-24.49-2.6-31.31-.02-.82-.36-1.58-.37-2.39-.09-3.98.1-7.98.01-11.95-.79-.2-.57.14-.79.43-.53.68-1.08,1.78-1.56,2.57-4.7,7.69-9.02,17.1-14.11,24.3-1.88,2.65-3.55,4.67-7.06,3.31-2.71-1.05-4.64-3.85-3.28-6.73,8.23-13.09,15.06-28.96,23.9-41.51,4.31-6.11,11.76-3.73,12.56,3.3l1.08,41.66Z"/>
  <path class="st1" d="M381.49,468.14c25.14-1.96,44.74,42.59,14.73,56.6-14.81,6.91-26.05,1.51-34.81-11.12-13.47-19.43-4.2-43.58,20.08-45.48ZM379.75,477.81c-2.97.35-7.24,2.73-9.27,4.93-12.52,13.51,9.1,45.37,25.09,31.32,9.83-8.64,2.34-26.99-7.19-32.93-1.83-1.14-6.63-3.55-8.62-3.31Z"/>
  <path class="st1" d="M471.53,425.82v6.06c0,.46.88,3.42,1.12,4.07,2,5.4,7.17,5.95,10.53,9.72,5.39,6.04-.68,13.08-7.26,8.81-11.49-9.66-26.04-18.03-37.08-27.98-2.28-2.05-3.64-3.93-2.68-7.16,1.42-4.75,6.31-4.08,9.74-1.97,5.36,3.3,10.17,8.28,15.6,11.56l-6.09-32.99c-.12-5.49,6.14-8.7,9.74-4.04,2.67,3.45,2.79,15.1,3.71,19.82.53,2.73,2.11,2.81,4.6,3.02,8.29.7,17.69.24,25.85,1.49,3.97.61,8.43,2.3,7.38,7.19-.97,4.5-5.2,4.97-9.01,4.82-7.64-.3-15.84-1.86-23.54-2.42-.86-.06-1.73.02-2.59,0Z"/>
  <path class="st1" d="M422.05,437.06c.44-4.19,3.27-8.4,7.96-6.57,2.45.96,3.22,3.45,3.48,5.87l-1.04,19.55,30.09,8.15c2.08.72,5.15,3.61,5.15,5.88,0,2.53-4.74,6.42-7.39,5.71l-28.21-8.3c-.41,5.16-1.62,10.91,1.73,15.4.96,1.28,2.48,2.04,3.48,3.1,3.18,3.39,7.04,9.62.99,12.44-3.83,1.78-6.35-1.12-8.79-3.59-8.45-8.56-18.24-19.76-25.95-29.07-2.51-3.03-6.98-7.56-3.97-11.6,3.54-4.75,8.91-.2,11.77,2.76,3.7,3.83,6.78,8.33,10.72,11.95v-31.66Z"/>
  <path class="st1" d="M239.25,482.64c1.49-.2,4.27.72,5.27,1.83,1.14,1.26,1.13,2.91,1.05,4.52-.49,8.87-4.98,20.89-6.48,30.2-1.26,7.84-1.78,13.1,7.16,15.46,10.4,2.74,12.6-2.04,15.13-10.82s3.7-17.6,6.15-26.03c1.13-3.9,2.3-7.89,7.24-7.23,5.9.79,4.33,7.44,3.56,11.45-1.74,9.09-6.15,31.19-11.83,37.66-6.1,6.95-15.86,6.5-24.06,3.98-26.97-8.28-10.49-36.72-7.96-55.73.52-2.31,2.28-4.95,4.77-5.29Z"/>
  <path class="st1" d="M164.84,434.56c1.22-.17,2.55-.29,3.67.3.43.22,3.22,3.71,3.27,3.99.1.51-2.21,4.5-2.71,5.14-8.97,11.59-22.89,21.93-32.37,33.39-2.53,1.91-5.09,3.14-7.95,1.04-3.95-2.89-2.42-6.4.18-9.51,9.19-10.98,21.46-20.79,30.95-31.68,1.51-1.27,2.92-2.38,4.94-2.67Z"/>
  <path class="st1" d="M501.56,325.2c18.86-2.58,21.04,25.67,3.02,26.9s-19.45-24.65-3.02-26.9Z"/>
  <path class="st1" d="M91.83,326.94c18.74-2.04,20.18,28.59-.09,26.89-15.81-1.33-15.78-25.16.09-26.89Z"/>
  <path class="st1" d="M97.36,114.45c.25.25.35.78.4,1.14.95,6.78,2.43,17.64-1.42,23.45-4.5,6.8-5.91.17-7.46-4.18-.94-2.62-2.59-6.53-2.14-9.24.17-1.05,1.88-2.98,2.61-3.96,1.32-1.76,4.31-5.65,5.83-6.97.68-.59,1.4-1.04,2.18-.24Z"/>
  <path class="st1" d="M301.88,35.2c1.55-.21,10.46-.18,10.46,1.81-4.93,5.15-11.08,14.81-18.67,15.95-1.26.19-4.56.16-4.49-1.36.28-6.11,6.2-15.52,12.7-16.4Z"/>
  <path class="st1" d="M226.87,460.77c1.03,4.54-3.48,6.17-6.41,8.54-.37.02-4.44-2.68-5.02-3.17-2.01-1.72-4.51-6.58-6.1-7.4-2.73-1.41-4.35,1.95-7.4.99-.67-5.3,4.46-9.43,9.43-7.18,3.16,1.43,4.7,5.24,6.85,7.69,3.7,4.21,4.3-.22,8.64.53Z"/>
  <path class="st2" d="M292.62,288.78c-.43-.3-4.95-.31-5.98-.7-1.22-.47-.42-4.99.02-6.12,2.77-7.05,13.45-8.22,18-2.29,3.67,4.78,3,9.55,3.97,15.07,3.42,19.55,19.46,32.61,7.57,53.8-8.15,14.54-18.18,16.54-30.86,5.48-16.75-14.61-15.18-34.72-1.04-50.54,1.34-1.5,7.85-6.98,8.13-7.79.79-2.37-.61-4.74.19-6.9ZM297.46,280.13c-2.52.54-4.99,1.33-7.45,2.07-.49.15-.61-.22-.51.7,3.21.66,7.17,1.57,7.96-2.76Z"/>
  <path class="st0" d="M366.33,294.66l19.37-7.45c-6.11,8.56-17.3,9.43-26.29,13.16l.78.79,21.37-1.31c-6.17,5.97-15.69,6.98-23.88,7.96l.05,1.34,21.41,2.47c-4.29,3.48-10.69,4.13-16.09,3.8-1.17-.07-8.15-1.38-8.48-1.03-.04.04-.14,1,.21,1.07l16.06,5.51c-3.66,2.94-9.14,2.2-13.5,1.21-2.12-.48-4.62-1.76-6.56-2.11-1.12-.2-1.58,1-.6,1.33l14.09,7.87c-3.42,1.27-6.64.66-9.92-.63-1.62-.64-8.03-4.55-8.94-4.46-.2.02-.85.7-.85.76-.01.7,9.29,8.12,10.03,9.86-4.15.69-6.97-1.68-10.14-3.87-.94-.65-3.18-2.75-3.88-3.05-.42-.19-.65.09-.51.51l4.84,7.79c-5.3-.41-8.3-5.42-11.94-8.65l2.1,6.21.15,1.75c-.85.9-6.34-5.06-7.44-5.53l.17,3.11c-1.91-1.35-3.22-3.99-4.07-6.14-.66-1.67-2.06-5.7-2.36-7.35-.21-1.14-.13-1.27,1.05-1.41,9.58-1.11,14.27-1.33,20.06-10.05,4.82-7.26,4.81-10.1,13.12-14.91,11.33-6.55,19.31-9.38,28.62-19.48.79-.86,5.26-6.75,5.7-6.75,1.48,0,.17,3-.11,3.69-2.33,5.77-6.94,10.13-11.67,13.94-1.62,1.3-11.82,8.31-12.1,9.01-.14.34.26.66.18,1.04Z"/>
  <path class="st0" d="M229.12,311.27c2.95-.26,6.05-1.45,8.82-2.43l-.34-.52c-7.51-2.48-16.36-3.11-22.5-8.47l19.9,1.39c.45,0,.96-.42.86-.87-.2-.85-14.16-5.35-16.25-6.24-3.24-1.37-6.24-3.06-9.35-4.67-.01-.7,1.39-.28,1.75-.19,5.08,1.34,10.33,4.3,15.53,5.37,0-.38.39-.83.32-1.16-.15-.66-9.39-6.95-10.85-8.18-4.05-3.45-8.23-7.99-10.14-13.05-.36-.95-1.46-3.21.42-2.88,4.92,7.07,11.45,12.76,18.77,17.25s16.16,6.82,21.36,13.94c1.83,2.5,2.86,5.3,4.63,7.83,3.85,5.51,9.82,8.58,16.34,9.79l-6.62,15.17-1.34-.13c.32-1.77,1.42-3.55,1.22-5.36l-9.35,8.3c-.26-.29-.71-.54-.82-.93-.33-1.25,3.76-6.1,4.45-7.54.05-.26-.33-.22-.51-.17-2.3.71-5.98,4.66-8.48,6.06-1.45.81-5.18,2.28-6.73,1.88-.45-.12-.61-.41-.21-.85,1.28-1.39,4.12-2.92,5.71-4.33,2.11-1.88,4.28-4.1,5.02-6.91-6.07,3.55-12.21,8.59-19.72,5.88l12.77-7.12c.77-.51,1.65-.73,1.41-1.87-6.08,1.29-11.96,4.14-18.26,2.17-.33-.1-2.79-.85-2.15-1.48l14.15-4.89.04-1.34c-7.82.82-16.59,1.58-23.19-3.46,4.31-.28,9.07.38,13.32,0Z"/>
  <path class="st0" d="M299.2,383.25h.5c11.58,11.65,13.55,28.8,17.83,43.95-7.73-6.39-10.65-16.43-15.39-24.92-.33-.59-2.51-4.48-2.78-4.48-.37,0-.5.84-.54,1.19-.96,8.79.67,18.79-1.65,27.42l-1.79,2.36c-5.2-10.29-3.82-22.31-5.88-33.4-4.61,6.07-6.13,13.88-9.18,20.75-.81,1.81-5.06,10.26-6.83,10.31-.15,0-1.2-.25-1.25-.3-.21-.24-.03-5.42.12-6.21.8-4.41,4.15-12.49,5.81-17.03,1.4-3.82,3.76-11.48,5.85-14.56,1.49-2.2,4.27-3.76,6.05-5.74,3.28,2.87,6.29,6.18,9.13.67Z"/>
  <path class="st0" d="M332.41,420.28c-10.79-6.5-16.66-18.08-23.72-28.05-.31-.88,2.43-3.01,3.18-3.39,2.18-1.11,2.82.27,3.94,1.84,4.61,6.45,12.21,19.12,15.63,26.25.51,1.05,1.07,2.14.97,3.35Z"/>
  <path class="st0" d="M256.98,419.59c3.36-11.83,10.48-22.38,18.56-31.47.25-.04,3.79,2.88,3.87,3.31.14.72-5.68,9.66-6.58,10.96-4.4,6.37-9.56,12.62-15.85,17.19Z"/>
  <path class="st0" d="M207.77,312.36c.31,1.06-.21,1.24-1.13,1.35-6.94.8-18.7-1.36-25.29-3.82-1.38-.52-3.47-.77-2.94-2.43l24.01,1.77c2.53.02,3.57,1.74,5.34,3.13Z"/>
  <path class="st0" d="M415.13,308.16c-7.83,5.56-18.38,5.58-27.68,5.53.28-2.24,1.29-4.19,3.72-4.4l23.96-1.13Z"/>
  <path class="st0" d="M210.95,320.26c-7.26.96-14.6,1.65-21.86.24l-4.78-1.27c3.55-.39,7.05-1.27,10.6-1.68,3.94-.46,12.17-1.55,15.19,1.33.41.39.96.75.85,1.39Z"/>
  <path class="st0" d="M383.98,320.61s-.32-1.07-.3-1.17c.18-.78,3.71-2.32,4.62-2.33,6.18,0,14.75,1.13,21.08,1.8,1.37.15,1.85.21,1.59,1.69h-26.99Z"/>
  <path class="st0" d="M281.2,382.56c-.59.07-.77.05-1.21-.35-.81-.74-1.78-5.1-2.78-5.52-.2-.09-.8-.15-.85.19-.18,1.25-.08,2.9-.87,3.95-4.48-7.28,7.93-13.41,9.14-3.6.12.96,0,1.94.03,2.9l-3.46-3.46v5.88Z"/>
  <path class="st0" d="M315.46,380.83c-.53.64-.59-.2-.72-.49-.5-1.11-.64-2.55-1.18-3.66-1.29,1.75-1.86,4.28-2.86,6.13-.22.4.01.59-.77.44l-.35-7.27-4.15,4.15c-.61-4.1,2.04-8.59,6.67-7.54,1.7.39,3.35,2.67,3.62,4.33.11.64-.03,3.62-.26,3.9Z"/>
  <path class="st0" d="M347.88,346.28c.81-.07,9.88,9.86,11.38,11.02.41.81-.96,1.47-1.4,2.07l-11.08-11.42c-.57-.78.38-1.61,1.11-1.67Z"/>
  <path class="st0" d="M354.57,347.25c-.28-.4,1.08-2.04,1.71-1.57,1.28,1.23,12.26,9.06,11.97,9.87-.1.29-.94,1.48-1.37,1.38l-12.31-9.68Z"/>
  <path class="st0" d="M211.65,347.95l-.7-2.07,16.26-6.58c-.12.51.68,1.35.66,1.56-.06.88-14.36,5.99-16.22,7.09Z"/>
  <path class="st0" d="M383.29,346.56c-5.71.35-11.55-2.01-15.23-6.4-.33-.39-.84-.56-.69-1.21l15.92,7.61Z"/>
  <path class="st0" d="M349.03,358.68c-4.95-1.44-8.41-6.25-7.95-11.42l7.95,11.42Z"/>
  <path class="st0" d="M238.51,345.9c.45-.08,1.21.69,1.14,1.14-.17,1.01-8.8,7.3-10.02,8.71-.76.4-1.52-.67-1.34-1.34.21-.81,9.07-7.13,10.22-8.51Z"/>
  <path class="st0" d="M289.43,289.87c1.12-.14,2.18.5,1.65,1.66-.16.36-5.5,5.18-5.89,5.19-1.57.04.44-3.32.72-3.77.77-1.23,1.98-2.89,3.52-3.09Z"/>
  <path class="st0" d="M255.94,347.61c-.99,1.15-4.68,9.32-5.24,9.64-.25.15-1.63-.24-1.68-.31-.32-.44,4.71-8.2,4.89-9.64l2.03.31Z"/>
  <path class="st0" d="M336.24,356.59c-.37-.26-3.74-7.92-3.47-8.28.14-.19,1.19-.43,1.55-.03.27.3,3.2,7.11,3.24,7.52.07.72-.94,1.06-1.32.79Z"/>
  <path class="st0" d="M246.95,345.88c1.94.77.34,2.95-.42,4.26-2.15,3.72-5.72,6.55-9.8,7.85l10.22-12.1Z"/>
  <polygon class="st0" points="448.7 166.27 481.56 153.29 463.74 183.92 448.7 166.27"/>
  <path class="st0" d="M321.69,537.94l-2.37-15.53c4.3-.49,8.99-1.54,13.28-1.78,1.37-.08,3.54-.17,4.85-.01,4.51.53,6.37,9.14,3.05,12.07-3.72,3.29-13.91,4.42-18.81,5.25Z"/>
  <path class="st0" d="M317.56,513.69c-.28-2.69-2.85-10.23-1.92-12.43.67-1.58,3.73-2,5.28-2.33,4.77-1,12.36-2.82,14.43,3.02,3.66,10.33-11.49,10.4-17.79,11.73Z"/>
  <path class="st0" d="M100.95,431.05l12.58-9.73c2.53,4.28,10.2,11.58,10.56,16.44.3,4.03-4.36,8.12-8.14,8.12-5.34,0-11.34-10.31-14.87-13.85l-.13-.98Z"/>
  <path class="st0" d="M120.33,415.82c1.81-.74,10.32-8.69,11.5-8.33.68.2,7.56,10.26,8.24,11.52,1.75,3.27,1.51,5.69-1.44,8.02-8.28,6.55-13.09-5.69-18.17-10.21l-.12-.99Z"/>
  <path class="st2" d="M379.75,477.81c1.99-.23,6.79,2.17,8.62,3.31,9.53,5.94,17.01,24.29,7.19,32.93-15.98,14.05-37.61-17.8-25.09-31.32,2.03-2.19,6.3-4.58,9.27-4.93Z"/>
  <path class="st1" d="M297.46,280.13c-.79,4.33-4.74,3.42-7.96,2.76-.1-.91.02-.55.51-.7,2.46-.74,4.93-1.53,7.45-2.07Z"/>
</svg>