<?xml version="1.0" encoding="UTF-8"?>
<svg id="Calque_1" xmlns="http://www.w3.org/2000/svg" version="1.1" viewBox="0 0 595.28 595.28">
  <!-- Generator: Adobe Illustrator 29.6.1, SVG Export Plug-In . SVG Version: 2.1.1 Build 9)  -->
  <defs>
    <style>
      .st0 {
        fill: #396d3d;
      }

      .st1 {
        fill: #366c3b;
      }
    </style>
  </defs>
  <path class="st0" d="M285.28,4.76c171.28-6.18,311.23,130.35,306.35,302.2-4.81,169.48-152.37,299.3-321.33,283.58C107.69,575.41-10.84,429.29,6.08,266.8,20.97,123.83,141.15,9.96,285.28,4.76ZM295.66,9.6C150.07,10.75,27.19,121.5,11.31,266.15c-18.96,172.7,117.95,323.29,291.53,320.6,149.03-2.31,272.92-119.36,283.23-268.04C597.75,150.46,464.26,8.28,295.66,9.6Z"/>
  <path class="st1" d="M287.36,17.22c164.78-5.93,297.66,126.78,292.51,291.47-4.89,156.36-139.21,279.07-295.39,271.14C118.7,571.42-4.14,421.89,19.98,257.17,39.49,123.98,152.51,22.07,287.36,17.22ZM301.88,35.2c-6.51.88-12.42,10.29-12.7,16.4-.07,1.53,3.23,1.55,4.49,1.36,7.59-1.14,13.74-10.8,18.67-15.95,0-1.99-8.91-2.02-10.46-1.81ZM286.04,72.83c10.75-.97,21.57-.66,32.37-.68,4.6-.51,10.82.22,11.84-5.81,1.66-9.74-8.1-8.85-14.64-8.76-7.19.11-14.58.57-21.77.72-9.47.2-24.87-3.3-26.1,9.55-.73,7.65.51,17.67.66,25.55.25,13.53-.32,28.16.66,41.56.47,6.43,2.76,10.02,9.52,10.55,9.13.72,20.79-.46,30.11-.72,5.62-.16,14.69.63,19.85-.91,7.27-2.18,5.53-13.41-1.88-13.91l-39.08.33c-.35.08-1.19-.25-1.19-.54v-23.71h36.16c.15,0,2.06-.9,2.37-1.09,4.09-2.66,3.89-10.2-.71-11.99-4.27-1.66-10.99-.44-15.49-.4-7.56.06-15.13-.08-22.68-.01v-19.73ZM189.15,111.25c.26-.29,1.37.69,1.69.91,11.11,7.53,22.12,17.05,32.95,25.18,4.41,3.31,12.89,10.69,17.38,12.73,9.49,4.33,17.95-3.33,13.89-13.2-9.14-20.62-15.13-44.36-24.67-64.61-2.22-4.72-5.17-8.37-10.88-6.27-6.23,2.3-5.05,7.91-3.52,13.06l17.12,45.34c-.29.28-1.36-.68-1.69-.9-13.04-8.95-25.76-19.8-38.49-29.34-6.31-4.72-16.88-15.6-24.53-7.99-4.04,4.01-2.94,8.71-1.39,13.5,6.99,21.59,17.03,42.94,24.52,64.42,4.46,9.04,17.03,5.45,15.28-4.9-5.16-16.2-12.29-31.81-17.64-47.93ZM384.95,72.24c-23.04,2.22-36.89,27.38-38.01,48.51-1.55,29.32,27.86,44.58,53.82,42.06,4.87-.47,10.31-1.53,13.13-5.91,2.1-3.26,7.35-17.08,8.34-21.08,1.61-6.55-1.19-8.81-6.63-11.37-4.97-2.34-13.42-5.85-18.62-7.33-3.87-1.11-7.7-.66-9.49,3.35-4.23,9.47,9.69,10.84,15.08,13.9,3.31,1.88,1.9,5.75.62,8.72-3.04,7.03-12.64,5.67-18.87,4.34-28.87-6.17-23.49-40.6-5.53-55.73,10.5-8.85,29.53-5.14,34.08,8.15,1.61,4.69.66,12.21,6.49,14.28,10.07,3.56,12.37-7.49,10.84-14.99-3.79-18.51-28.08-28.53-45.25-26.88ZM97.36,114.45c-.79-.79-1.51-.34-2.18.24-1.52,1.33-4.51,5.21-5.83,6.97-.73.98-2.44,2.91-2.61,3.96-.44,2.71,1.21,6.62,2.14,9.24,1.55,4.35,2.96,10.97,7.46,4.18,3.85-5.81,2.37-16.67,1.42-23.45-.05-.36-.15-.89-.4-1.14ZM124.34,118.25c-2.49.4-5.12,3.47-6.84,5.27-8.48,8.93-18.12,19.6-25.94,29.09-1.79,2.18-4.59,5.46-4.82,8.34-.32,3.87,3.3,7.2,5.85,9.65,15.77,15.18,33.59,29.24,49.87,43.92,6.08,4.25,10.04.17,14.17-4.12,8.75-9.07,19.75-21.14,27.51-30.98,2.83-3.59,5.26-7.18,1.73-11.43-3.94-4.75-9.56-2.47-12.82,1.73l-24.04,27.19c-6.05-4.4-11.25-10.04-17.14-14.72l-.53-.87c5.21-6.9,11.5-12.99,17.15-19.55,3.88-4.51,11.9-11.68,4.49-16.96-5.29-3.77-9.43,1.61-12.81,5.18-6.65,7.06-12.59,14.85-19.43,21.75l-14.98-12.97c8.03-9.65,16.63-18.86,24.89-28.33,4.61-5.09.3-13.26-6.32-12.21ZM487.39,135.91c-2.42.17-5.07,1.22-7.38,1.97-21.98,7.18-43.29,16.7-65.22,24.06-10.18,2.53-9.22,18.69,2.09,16.62,4.94-.91,11.37-4.99,16.17-5.66,1.11-.15,1.99.18,2.97.68,6.01,7.25,13.43,14.3,19.05,21.78.37.5.98,1.07.76,1.7-2.37,5.14-6.05,10.23-8.12,15.45-1.76,4.44-1.36,8.84,3.41,11.02,7.82,3.57,11.71-3.73,14.94-9.28,11.5-19.78,21.28-40.66,32.47-60.62,4.52-8.15-1.9-18.38-11.15-17.73ZM296.77,176.65l-.72.49-8.65,24.74-27.3.73,21.07,16.84-7.57,26.41,22.72-15.17,22.61,15.17-7.55-26.09,21.39-16.82-27-.86-9-25.44ZM530.97,205.12c-21.66,7.96-44.78,14.47-66.1,23.18-4.84,1.98-7.97,3.89-7.52,9.77,4.78,13.45,8.62,29.56,14.71,42.38,2.18,4.59,6.07,7.05,11.01,4.11,4.51-2.68,3.25-7.88,2.05-11.99-2.64-9.02-6.82-18.04-9.63-27.05-.56-1.75.09-2.56,1.57-3.31,18.18-6.89,37.58-12.27,55.55-19.54,1.74-.7,3.62-1.33,5.12-2.49,7.11-5.47,2.25-17.08-6.77-15.08ZM72.44,206.16c-23.37,3.16-35.31,51.41-7.19,59.61,20.5,5.98,27.77-13.65,37.93-26.45,3.4-4.29,6.97-8.11,13.02-6.5,12.83,3.41,9.26,25.59-1.22,29.72-5.76,2.27-18.24-.4-18.92,8.42s8.13,9.67,14.72,9.18c27.34-2.04,40.69-51.01,12.16-63.06-23.93-10.11-31.65,12.17-43.7,27.02-10.01,12.34-19.92,2.91-16.5-9.92,1.14-4.27,4.51-8.29,8.51-10.17,5.31-2.5,15.21-1.07,15.47-9.13.24-7.6-8.26-9.53-14.28-8.72ZM402.32,260.74c4.63-11.24,7.63-22.91,3.52-34.84l-1.44-2.88c-1.28,3.72-2.09,7.62-3.37,11.34-6.6,19.18-25.82,39.13-43.69,48.36-5.12,2.65-11.32,4.31-15.58,8.29-6.39,5.97-6.61,15.34-13.61,21.51s-11.11-3.26-13.12-8.95c-4.46-12.65-3.78-35.25-23.02-30.13-10.05,2.68-8.09,9.61-9.08,17.57-.84,6.78-4.08,13.59-8.98,18.35-4.47,4.35-7.2,4.94-11.23-.21-3.21-4.11-3.68-8.34-6.15-12.53-4.55-7.73-15.03-11.63-22.4-16.36-15.32-9.84-31.37-26.65-37.76-43.91-1.33-3.59-1.92-7.63-3.19-11-.25-.68-.59-1.66-1.3-1.98-4.37,11.56-3.82,23.68,0,35.3-1.47-1.08-8.17-10.53-9.12-10.36-.28.05-.93.72-.86,1.12l15.89,23.59c.53.28.07.82-.19.87-1.12.22-14.11-14.43-15.73-16.44-6.92-8.6-12.74-18.17-16.62-28.54-.5.06-.58,1.51-.64,1.94-2.08,15,5.64,26.48,16.22,35.95,3.49,3.13,18.35,13.9,19.37,16.97.35,1.06.43,2.16.36,3.27-14.73-9.03-27.54-21.3-39.46-33.73-.84-.88-3.07-3.95-3.98-4.33s-.53,2.28-.48,2.56c2.36,15.32,13.75,23.9,26.04,31.06,5.24,3.05,12.88,6.14,17.51,9.48,1.86,1.34,2.76,2.98,2.44,5.34-.42.41-6.5-2.26-7.5-2.71-14.33-6.4-27.3-15.55-39.8-24.91l-2.88-1.62c4.58,13.06,13.52,23.02,26.72,27.61,6.93,2.41,15.97,3.08,22.31,5.72,2.37.99,3.23,2.23,2.87,4.92-13.1-1.48-25.97-5.68-37.96-11.01-5.09-2.26-9.91-5.06-14.99-7.33,5.12,11.13,15.87,18.55,26.65,23.7l-.2.87c-7.91-1.07-15.71-3.02-23.58-4.45-.45-.08-.66,0-.45.46.26.55,2.04,2.43,2.6,2.93,7.16,6.42,19.37,13.48,29.06,14.2,9.81.73,18.59-1.66,28.2-2.42-.07.37.13,1.13-.04,1.34-.16.19-4.13,1.1-4.8,1.25-11.72,2.73-24.23,2.65-36.17,1.55-2.47-.23-4.99-.67-7.44-1.03,6.91,7.5,18.26,12.43,28.56,11.78,8.45-.54,16.59-5.45,25.07-6.24l-7.03,3.52c-9.33,4.06-19.04,6.72-29.3,6.86,3.04,3.07,7.31,5.03,11.33,6.48,5.28,1.91,13.36,4.34,18.9,3.85,7.04-.62,12.03-5.51,18.04-8.6-1.05,2.17-3.47,4.23-5.4,5.67-7.45,5.59-17.45,8.01-26.62,8.85-.17.81.1.56.44.77.63.4,2.73,1.58,3.36,1.82,6.27,2.36,18.63,2.81,25.69,4.07,4.28.76,5.13,3.88,10.84,2.01.95-.31,2.91-1.64,3.51-1.7.48-.04,1.62,1.27,2.52,1.51,3.45.92,5.84-1.82,8.67-3.12,6.19-2.84,8.3-2.4,12.25-8.86l3.31-5.85c.72,5.34,4.85,12.53,4.46,17.77-.57,7.79-10.7,15.92-16.95,19.74-13.44,8.22-30,11.56-44.88,16.36-2.56,1.21,2.6,3.67,3.73,4.09,9.64,3.52,21.97-4.15,30.46-8.64,6.1-3.23,12.08-6.68,17.75-10.63,2.8-1.95,4.67-4.85,8.54-4.09.35,2.56-.16,3.36-1.45,5.3-4.91,7.4-12.68,15.36-20.92,18.88-2.05.87-5.85,2.3-7.95,2.79-.52.12-.57.04-.49-.49.16-1.01,1.2-2.1,1.04-3.29-2.81,1.4-12.36,5.61-12.79,8.85-.5,3.76,7.05,3.11,9.52,2.93,5.86-.44,9.94-3.1,15.04-5.55.38.41-4.04,8.86-4.56,10.15-1.25,3.12-3.46,8.61,1.98,8.9,4.79.26,13.25-9.01,17.11-11.78.14,3.91-7.2,19.8,1.17,19.02,5.94-.56,12.51-13.22,16.82-16.94.93,4.84,1.38,10.58,2.94,15.23,1.04,3.09,2.79,5.03,6.35,3.92,4.57-1.42,5.29-12.91,6.28-16.91.11-.45-.02-.88.52-1.2,3.43,3.66,10.25,16.28,15.83,15.5,7.97-1.11,2.57-12.51,1.82-17.23,4.24,2.75,8.24,6.4,12.75,8.7,2.04,1.04,4.04,2.23,6.24.58,3.35-2.51.48-7.47-.98-10.34-.96-1.89-2.23-3.7-3.29-5.53,1.96-.14,3.49,1.25,5.2,1.89,4.45,1.67,9.38,3,14.12,1.67.61-.17,3.49-1.71,3.55-2.06.11-.66-1.25-2.9-1.78-3.39-1.28-1.16-11.96-7.63-13.57-8.23-1.03-.39-2.36-.73-2.64.6.02.48,4.91,2.95,5.34,3.62,1.13,1.76-3.6.29-4.25.1-6.82-2.05-11.41-6.51-16.18-11.5-2.2-2.3-6.87-7.11-8.42-9.58-.53-.85-.9-1.6-.69-2.63.18-.86,2.18-3.39,3.17-2.28,13.56,9.66,34.13,29.27,52.3,24.15,1.26-.36,5.97-2.54,6.42-3.62.28-.67-.43-.48-.76-.6-16.96-6.17-39.17-9.79-52.88-21.88-2.97-2.61-9.31-9.23-9.69-13.15-.5-5.2,5.29-11.6,6.93-16.44.52-.14.57.14.87.34,2.5,1.73,5.42,5.82,7.95,7.97,3.52,3,8.19,5.03,12.55,6.48,13.18,1.02,25.31.19,38.22-2.45,3.64-.74,8.09-1.53,10.32-4.91.23-.35.55-.26,0-.7-10.16-2.42-21.52-5.17-27.69-14.35,5.9,2.07,11.05,8,17.48,8.64,7.67.77,20.34-4.66,26.79-8.85.95-.62,2.18-1.24,2.8-2.22-10.7-.12-21.67-2.87-31.67-6.57-.98-.36-4.59-1.62-5.14-2.05-.49-.38-.13-1.26-.21-1.76,13.28,5.03,26.95,9.52,40.93,4.07,5.07-1.98,8.93-4.92,12.96-8.47.23-.21.66.02.44-.79-10.38,1.01-21.23,1.96-31.68,1.4-3.5-.19-11.36-1.23-14.25-3.04-.35-.22-.61.02-.44-.78,5.09-.34,10.03,1.26,15.06,1.72,13.7,1.28,31.04-2.58,40.67-12.96,1.38-1.49,2.54-3.26,3.8-4.86-2.86,0-5.87,1.34-8.71,2.02-3.6.86-7.23,1.62-10.89,2.26l-7.39.39c5.82-3.15,11.71-6.55,17.06-10.45,4.82-3.51,11.21-8.26,12.18-14.46-16.33,9.23-34.16,16.69-53.12,17.98-.13-.09,1.49-2.35,1.73-2.59,2.71-2.68,16.71-4.86,21.37-6.31,10.44-3.25,18.39-8.12,24.59-17.29,1.83-2.71,4.84-8.26,5.58-11.38.13-.53.01-.57-.5-.49-2.23,1.97-4.78,3.56-7.26,5.2-10.79,7.11-22.33,15.17-33.43,21.59-3.26,1.89-6.01,3-9.66,4.01-.39-.54.58-3.69.96-4.4,2.05-3.74,12.82-7.08,17.04-9.27,11.43-5.92,21.56-14.55,26.7-26.59,1.35-3.16,2.76-6.83,2.54-10.27-8.49,7.99-16.49,16.53-24.91,24.58-6,5.73-11.91,11.42-19.39,15.21-.07.02-.78-1.17-.8-1.27-.09-.55,4.52-6.29,5.29-7.04,5.34-5.18,11.64-8.96,16.97-14.87,7.86-8.7,15.74-21.76,12.97-33.92-2.75,3.76-4.49,8.29-6.86,12.34-5.48,9.41-15.83,22.71-23.41,30.57-.6.63-1.15,1.59-1.9.51,4.25-6.02,9.11-12.24,12.17-18.97.76-1.68,1.86-4.07,1.85-5.77-3.09,2.87-5.57,8.09-8.53,10.84-.45.42-.44.77-1.33.57ZM501.56,325.2c-16.43,2.25-14.11,28.06,3.02,26.9,18.02-1.22,15.84-29.48-3.02-26.9ZM91.83,326.94c-15.87,1.73-15.9,25.56-.09,26.89,20.27,1.7,18.83-28.93.09-26.89ZM471.53,425.82c.86.03,1.73-.06,2.59,0,7.7.55,15.9,2.11,23.54,2.42,3.82.15,8.05-.32,9.01-4.82,1.05-4.89-3.42-6.58-7.38-7.19-8.16-1.25-17.56-.78-25.85-1.49-2.48-.21-4.06-.29-4.6-3.02-.92-4.72-1.04-16.38-3.71-19.82-3.59-4.65-9.86-1.45-9.74,4.04l6.09,32.99c-5.43-3.29-10.24-8.26-15.6-11.56-3.43-2.11-8.32-2.78-9.74,1.97-.96,3.23.41,5.11,2.68,7.16,11.04,9.95,25.59,18.32,37.08,27.98,6.57,4.26,12.65-2.77,7.26-8.81-3.36-3.76-8.53-4.32-10.53-9.72-.24-.65-1.12-3.61-1.12-4.07v-6.06ZM132.74,437.58c6.28,1.54,11.91.71,16.06-4.53,5.15-6.49,4.02-12.53-.35-18.97-2.28-3.36-11.99-16.38-14.69-18.18-2.24-1.49-4.4-1.1-6.52.35-8.89,7.03-18.01,13.8-26.84,20.92-2.35,1.89-10.33,7.68-11.19,9.92s-.27,3.39.82,5.26c2.82,4.84,13.91,18.37,18.37,21.43,7.51,5.15,17.84,4.31,22.32-4.2.63-1.19,2.01-5.09,2.01-6.29v-5.71ZM422.05,437.06v31.66c-3.94-3.62-7.02-8.12-10.72-11.95-2.86-2.96-8.23-7.5-11.77-2.76-3.01,4.04,1.46,8.57,3.97,11.6,7.71,9.3,17.5,20.51,25.95,29.07,2.44,2.47,4.96,5.38,8.79,3.59,6.05-2.82,2.2-9.04-.99-12.44-1-1.06-2.52-1.82-3.48-3.1-3.35-4.49-2.13-10.24-1.73-15.4l28.21,8.3c2.65.72,7.38-3.17,7.39-5.71,0-2.27-3.07-5.16-5.15-5.88l-30.09-8.15,1.04-19.55c-.26-2.42-1.03-4.91-3.48-5.87-4.69-1.83-7.51,2.38-7.96,6.57ZM164.84,434.56c-2.03.29-3.43,1.4-4.94,2.67-9.49,10.89-21.76,20.71-30.95,31.68-2.6,3.11-4.13,6.62-.18,9.51,2.86,2.1,5.42.87,7.95-1.04,9.47-11.46,23.39-21.8,32.37-33.39.5-.64,2.81-4.63,2.71-5.14-.06-.28-2.84-3.76-3.27-3.99-1.12-.59-2.46-.47-3.67-.3ZM226.87,460.77c-4.34-.74-4.95,3.69-8.64-.53-2.15-2.45-3.68-6.26-6.85-7.69-4.97-2.25-10.1,1.88-9.43,7.18,3.04.96,4.67-2.4,7.4-.99,1.59.82,4.09,5.68,6.1,7.4.58.49,4.65,3.19,5.02,3.17,2.93-2.37,7.44-4,6.41-8.54ZM202.3,507.48l-1.08-41.66c-.8-7.03-8.25-9.41-12.56-3.3-8.84,12.54-15.67,28.42-23.9,41.51-1.36,2.88.57,5.68,3.28,6.73,3.51,1.36,5.18-.66,7.06-3.31,5.1-7.2,9.42-16.61,14.11-24.3.48-.79,1.03-1.89,1.56-2.57.22-.29,0-.63.79-.43.09,3.98-.1,7.97-.01,11.95.02.82.35,1.58.37,2.39.16,6.82-.87,26.39,2.6,31.31,3.26,4.63,8.01,2.7,10.82-1.25,7.93-14.07,16.83-27.7,23.91-42.19.23-6.9-5.74-8.5-9.94-3.03-5.97,7.78-10.31,19.35-16.04,27.57l-.98.58ZM381.49,468.14c-24.28,1.89-33.55,26.05-20.08,45.48,8.76,12.63,20,18.03,34.81,11.12,30.01-14.01,10.42-58.56-14.73-56.6ZM239.25,482.64c-2.49.34-4.25,2.98-4.77,5.29-2.53,19-19.01,47.44,7.96,55.73,8.2,2.52,17.96,2.97,24.06-3.98,5.68-6.47,10.08-28.57,11.83-37.66.77-4.02,2.35-10.67-3.56-11.45-4.94-.66-6.11,3.34-7.24,7.23-2.45,8.43-3.71,17.52-6.15,26.03s-4.73,13.57-15.13,10.82c-8.94-2.36-8.42-7.62-7.16-15.46,1.5-9.31,5.99-21.33,6.48-30.2.09-1.61.09-3.25-1.05-4.52-1-1.12-3.78-2.03-5.27-1.83ZM342.11,513.02c8.56-7.95,5.06-23.01-6.79-24.87-5.1-.8-21.23,2.19-26.8,3.58-7.18,1.79-5.59,6.09-4.73,12.02,1.71,11.77,4.18,28.2,7.27,39.45,1.04,3.77,2.41,5.46,6.61,5.08,6.03-.55,14.94-2.79,20.98-4.28s10.55-1.96,13.55-7.9c5.21-10.32.06-19.35-10.1-23.08Z"/>
  <path class="st1" d="M292.62,288.78c-.43-.3-4.95-.31-5.98-.7-1.22-.47-.42-4.99.02-6.12,2.77-7.05,13.45-8.22,18-2.29,3.67,4.78,3,9.55,3.97,15.07,3.42,19.55,19.46,32.61,7.57,53.8-8.15,14.54-18.18,16.54-30.86,5.48-16.75-14.61-15.18-34.72-1.04-50.54,1.34-1.5,7.85-6.98,8.13-7.79.79-2.37-.61-4.74.19-6.9ZM297.46,280.13c-2.52.54-4.99,1.33-7.45,2.07-.49.15-.61-.22-.51.7,3.21.66,7.17,1.57,7.96-2.76Z"/>
  <path class="st0" d="M366.33,294.66l19.37-7.45c-6.11,8.56-17.3,9.43-26.29,13.16l.78.79,21.37-1.31c-6.17,5.97-15.69,6.98-23.88,7.96l.05,1.34,21.41,2.47c-4.29,3.48-10.69,4.13-16.09,3.8-1.17-.07-8.15-1.38-8.48-1.03-.04.04-.14,1,.21,1.07l16.06,5.51c-3.66,2.94-9.14,2.2-13.5,1.21-2.12-.48-4.62-1.76-6.56-2.11-1.12-.2-1.58,1-.6,1.33l14.09,7.87c-3.42,1.27-6.64.66-9.92-.63-1.62-.64-8.03-4.55-8.94-4.46-.2.02-.85.7-.85.76-.01.7,9.29,8.12,10.03,9.86-4.15.69-6.97-1.68-10.14-3.87-.94-.65-3.18-2.75-3.88-3.05-.42-.19-.65.09-.51.51l4.84,7.79c-5.3-.41-8.3-5.42-11.94-8.65l2.1,6.21.15,1.75c-.85.9-6.34-5.06-7.44-5.53l.17,3.11c-1.91-1.35-3.22-3.99-4.07-6.14-.66-1.67-2.06-5.7-2.36-7.35-.21-1.14-.13-1.27,1.05-1.41,9.58-1.11,14.27-1.33,20.06-10.05,4.82-7.26,4.81-10.1,13.12-14.91,11.33-6.55,19.31-9.38,28.62-19.48.79-.86,5.26-6.75,5.7-6.75,1.48,0,.17,3-.11,3.69-2.33,5.77-6.94,10.13-11.67,13.94-1.62,1.3-11.82,8.31-12.1,9.01-.14.34.26.66.18,1.04Z"/>
  <path class="st0" d="M229.12,311.27c2.95-.26,6.05-1.45,8.82-2.43l-.34-.52c-7.51-2.48-16.36-3.11-22.5-8.47l19.9,1.39c.45,0,.96-.42.86-.87-.2-.85-14.16-5.35-16.25-6.24-3.24-1.37-6.24-3.06-9.35-4.67-.01-.7,1.39-.28,1.75-.19,5.08,1.34,10.33,4.3,15.53,5.37,0-.38.39-.83.32-1.16-.15-.66-9.39-6.95-10.85-8.18-4.05-3.45-8.23-7.99-10.14-13.05-.36-.95-1.46-3.21.42-2.88,4.92,7.07,11.45,12.76,18.77,17.25s16.16,6.82,21.36,13.94c1.83,2.5,2.86,5.3,4.63,7.83,3.85,5.51,9.82,8.58,16.34,9.79l-6.62,15.17-1.34-.13c.32-1.77,1.42-3.55,1.22-5.36l-9.35,8.3c-.26-.29-.71-.54-.82-.93-.33-1.25,3.76-6.1,4.45-7.54.05-.26-.33-.22-.51-.17-2.3.71-5.98,4.66-8.48,6.06-1.45.81-5.18,2.28-6.73,1.88-.45-.12-.61-.41-.21-.85,1.28-1.39,4.12-2.92,5.71-4.33,2.11-1.88,4.28-4.1,5.02-6.91-6.07,3.55-12.21,8.59-19.72,5.88l12.77-7.12c.77-.51,1.65-.73,1.41-1.87-6.08,1.29-11.96,4.14-18.26,2.17-.33-.1-2.79-.85-2.15-1.48l14.15-4.89.04-1.34c-7.82.82-16.59,1.58-23.19-3.46,4.31-.28,9.07.38,13.32,0Z"/>
  <path class="st0" d="M299.2,383.25h.5c11.58,11.65,13.55,28.8,17.83,43.95-7.73-6.39-10.65-16.43-15.39-24.92-.33-.59-2.51-4.48-2.78-4.48-.37,0-.5.84-.54,1.19-.96,8.79.67,18.79-1.65,27.42l-1.79,2.36c-5.2-10.29-3.82-22.31-5.88-33.4-4.61,6.07-6.13,13.88-9.18,20.75-.81,1.81-5.06,10.26-6.83,10.31-.15,0-1.2-.25-1.25-.3-.21-.24-.03-5.42.12-6.21.8-4.41,4.15-12.49,5.81-17.03,1.4-3.82,3.76-11.48,5.85-14.56,1.49-2.2,4.27-3.76,6.05-5.74,3.28,2.87,6.29,6.18,9.13.67Z"/>
  <path class="st0" d="M332.41,420.28c-10.79-6.5-16.66-18.08-23.72-28.05-.31-.88,2.43-3.01,3.18-3.39,2.18-1.11,2.82.27,3.94,1.84,4.61,6.45,12.21,19.12,15.63,26.25.51,1.05,1.07,2.14.97,3.35Z"/>
  <path class="st0" d="M256.98,419.59c3.36-11.83,10.48-22.38,18.56-31.47.25-.04,3.79,2.88,3.87,3.31.14.72-5.68,9.66-6.58,10.96-4.4,6.37-9.56,12.62-15.85,17.19Z"/>
  <path class="st0" d="M207.77,312.36c.31,1.06-.21,1.24-1.13,1.35-6.94.8-18.7-1.36-25.29-3.82-1.38-.52-3.47-.77-2.94-2.43l24.01,1.77c2.53.02,3.57,1.74,5.34,3.13Z"/>
  <path class="st0" d="M415.13,308.16c-7.83,5.56-18.38,5.58-27.68,5.53.28-2.24,1.29-4.19,3.72-4.4l23.96-1.13Z"/>
  <path class="st0" d="M210.95,320.26c-7.26.96-14.6,1.65-21.86.24l-4.78-1.27c3.55-.39,7.05-1.27,10.6-1.68,3.94-.46,12.17-1.55,15.19,1.33.41.39.96.75.85,1.39Z"/>
  <path class="st0" d="M383.98,320.61s-.32-1.07-.3-1.17c.18-.78,3.71-2.32,4.62-2.33,6.18,0,14.75,1.13,21.08,1.8,1.37.15,1.85.21,1.59,1.69h-26.99Z"/>
  <path class="st0" d="M281.2,382.56c-.59.07-.77.05-1.21-.35-.81-.74-1.78-5.1-2.78-5.52-.2-.09-.8-.15-.85.19-.18,1.25-.08,2.9-.87,3.95-4.48-7.28,7.93-13.41,9.14-3.6.12.96,0,1.94.03,2.9l-3.46-3.46v5.88Z"/>
  <path class="st0" d="M315.46,380.83c-.53.64-.59-.2-.72-.49-.5-1.11-.64-2.55-1.18-3.66-1.29,1.75-1.86,4.28-2.86,6.13-.22.4.01.59-.77.44l-.35-7.27-4.15,4.15c-.61-4.1,2.04-8.59,6.67-7.54,1.7.39,3.35,2.67,3.62,4.33.11.64-.03,3.62-.26,3.9Z"/>
  <path class="st0" d="M347.88,346.28c.81-.07,9.88,9.86,11.38,11.02.41.81-.96,1.47-1.4,2.07l-11.08-11.42c-.57-.78.38-1.61,1.11-1.67Z"/>
  <path class="st0" d="M354.57,347.25c-.28-.4,1.08-2.04,1.71-1.57,1.28,1.23,12.26,9.06,11.97,9.87-.1.29-.94,1.48-1.37,1.38l-12.31-9.68Z"/>
  <path class="st0" d="M211.65,347.95l-.7-2.07,16.26-6.58c-.12.51.68,1.35.66,1.56-.06.88-14.36,5.99-16.22,7.09Z"/>
  <path class="st0" d="M383.29,346.56c-5.71.35-11.55-2.01-15.23-6.4-.33-.39-.84-.56-.69-1.21l15.92,7.61Z"/>
  <path class="st0" d="M349.03,358.68c-4.95-1.44-8.41-6.25-7.95-11.42l7.95,11.42Z"/>
  <path class="st0" d="M238.51,345.9c.45-.08,1.21.69,1.14,1.14-.17,1.01-8.8,7.3-10.02,8.71-.76.4-1.52-.67-1.34-1.34.21-.81,9.07-7.13,10.22-8.51Z"/>
  <path class="st0" d="M289.43,289.87c1.12-.14,2.18.5,1.65,1.66-.16.36-5.5,5.18-5.89,5.19-1.57.04.44-3.32.72-3.77.77-1.23,1.98-2.89,3.52-3.09Z"/>
  <path class="st0" d="M255.94,347.61c-.99,1.15-4.68,9.32-5.24,9.64-.25.15-1.63-.24-1.68-.31-.32-.44,4.71-8.2,4.89-9.64l2.03.31Z"/>
  <path class="st0" d="M336.24,356.59c-.37-.26-3.74-7.92-3.47-8.28.14-.19,1.19-.43,1.55-.03.27.3,3.2,7.11,3.24,7.52.07.72-.94,1.06-1.32.79Z"/>
  <path class="st0" d="M246.95,345.88c1.94.77.34,2.95-.42,4.26-2.15,3.72-5.72,6.55-9.8,7.85l10.22-12.1Z"/>
  <polygon class="st0" points="448.7 166.27 481.56 153.29 463.74 183.92 448.7 166.27"/>
  <path class="st0" d="M321.69,537.94l-2.37-15.53c4.3-.49,8.99-1.54,13.28-1.78,1.37-.08,3.54-.17,4.85-.01,4.51.53,6.37,9.14,3.05,12.07-3.72,3.29-13.91,4.42-18.81,5.25Z"/>
  <path class="st0" d="M317.56,513.69c-.28-2.69-2.85-10.23-1.92-12.43.67-1.58,3.73-2,5.28-2.33,4.77-1,12.36-2.82,14.43,3.02,3.66,10.33-11.49,10.4-17.79,11.73Z"/>
  <path class="st0" d="M100.95,431.05l12.58-9.73c2.53,4.28,10.2,11.58,10.56,16.44.3,4.03-4.36,8.12-8.14,8.12-5.34,0-11.34-10.31-14.87-13.85l-.13-.98Z"/>
  <path class="st0" d="M120.33,415.82c1.81-.74,10.32-8.69,11.5-8.33.68.2,7.56,10.26,8.24,11.52,1.75,3.27,1.51,5.69-1.44,8.02-8.28,6.55-13.09-5.69-18.17-10.21l-.12-.99Z"/>
  <path class="st1" d="M379.75,477.81c1.99-.23,6.79,2.17,8.62,3.31,9.53,5.94,17.01,24.29,7.19,32.93-15.98,14.05-37.61-17.8-25.09-31.32,2.03-2.19,6.3-4.58,9.27-4.93Z"/>
</svg>