<?xml version="1.0" encoding="UTF-8"?>
<svg id="Calque_1" xmlns="http://www.w3.org/2000/svg" version="1.1" viewBox="0 0 595.28 595.28">
  <!-- Generator: Adobe Illustrator 29.6.1, SVG Export Plug-In . SVG Version: 2.1.1 Build 9)  -->
  <defs>
    <style>
      .st0 {
        fill: #fefefe;
      }
    </style>
  </defs>
  <path class="st0" d="M402.32,260.74c.89.19.88-.15,1.33-.57,2.97-2.76,5.45-7.97,8.53-10.84.02,1.69-1.08,4.09-1.85,5.77-3.06,6.73-7.92,12.95-12.17,18.97.75,1.07,1.3.11,1.9-.51,7.58-7.86,17.93-21.16,23.41-30.57,2.36-4.06,4.11-8.58,6.86-12.34,2.78,12.16-5.11,25.22-12.97,33.92-5.33,5.9-11.63,9.68-16.97,14.87-.77.75-5.39,6.49-5.29,7.04.02.11.73,1.29.8,1.27,7.48-3.8,13.4-9.49,19.39-15.21,8.42-8.05,16.42-16.59,24.91-24.58.22,3.44-1.19,7.11-2.54,10.27-5.14,12.05-15.27,20.67-26.7,26.59-4.22,2.19-14.98,5.52-17.04,9.27-.39.7-1.35,3.86-.96,4.4,3.65-1.01,6.4-2.12,9.66-4.01,11.1-6.42,22.64-14.49,33.43-21.59,2.48-1.63,5.03-3.22,7.26-5.2.51-.08.62-.04.5.49-.74,3.11-3.75,8.67-5.58,11.38-6.2,9.17-14.14,14.03-24.59,17.29-4.67,1.45-18.66,3.63-21.37,6.31-.24.24-1.86,2.5-1.73,2.59,18.96-1.29,36.79-8.76,53.12-17.98-.97,6.2-7.36,10.95-12.18,14.46-5.35,3.9-11.24,7.3-17.06,10.45l7.39-.39c3.65-.64,7.28-1.41,10.89-2.26,2.84-.68,5.85-2.01,8.71-2.02-1.26,1.6-2.41,3.36-3.8,4.86-9.63,10.38-26.97,14.24-40.67,12.96-5.02-.47-9.96-2.07-15.06-1.72-.17.8.09.55.44.78,2.89,1.82,10.75,2.85,14.25,3.04,10.45.57,21.3-.38,31.68-1.4.22.81-.21.58-.44.79-4.03,3.55-7.89,6.49-12.96,8.47-13.97,5.45-27.65.96-40.93-4.07.09.5-.27,1.39.21,1.76.55.43,4.16,1.68,5.14,2.05,10,3.71,20.97,6.45,31.67,6.57-.62.98-1.84,1.6-2.8,2.22-6.44,4.19-19.12,9.62-26.79,8.85-6.43-.65-11.58-6.57-17.48-8.64,6.17,9.18,17.53,11.93,27.69,14.35.55.44.23.35,0,.7-2.23,3.38-6.68,4.17-10.32,4.91-12.92,2.63-25.04,3.47-38.22,2.45-4.36-1.45-9.03-3.48-12.55-6.48-2.53-2.16-5.44-6.24-7.95-7.97-.29-.2-.34-.48-.87-.34-1.63,4.84-7.42,11.24-6.93,16.44.38,3.92,6.72,10.54,9.69,13.15,13.71,12.09,35.92,15.71,52.88,21.88.33.12,1.04-.06.76.6-.45,1.08-5.15,3.26-6.42,3.62-18.17,5.12-38.73-14.5-52.3-24.15-.99-1.11-2.99,1.42-3.17,2.28-.21,1.03.16,1.78.69,2.63,1.55,2.47,6.22,7.28,8.42,9.58,4.77,4.99,9.36,9.45,16.18,11.5.65.2,5.38,1.66,4.25-.1-.43-.67-5.32-3.14-5.34-3.62.29-1.34,1.61-.99,2.64-.6,1.6.6,12.28,7.07,13.57,8.23.54.48,1.89,2.72,1.78,3.39-.06.35-2.94,1.89-3.55,2.06-4.74,1.32-9.67,0-14.12-1.67-1.71-.64-3.24-2.04-5.2-1.89,1.07,1.82,2.34,3.64,3.29,5.53,1.46,2.86,4.33,7.83.98,10.34-2.2,1.64-4.2.46-6.24-.58-4.51-2.31-8.51-5.95-12.75-8.7.75,4.72,6.16,16.12-1.82,17.23-5.58.78-12.4-11.84-15.83-15.5-.55.32-.41.74-.52,1.2-.99,3.99-1.71,15.48-6.28,16.91-3.56,1.11-5.31-.83-6.35-3.92-1.56-4.65-2.01-10.39-2.94-15.23-4.31,3.72-10.88,16.38-16.82,16.94-8.37.79-1.03-15.11-1.17-19.02-3.86,2.77-12.33,12.04-17.11,11.78-5.43-.29-3.23-5.78-1.98-8.9.51-1.29,4.94-9.74,4.56-10.15-5.1,2.45-9.18,5.11-15.04,5.55-2.47.18-10.03.84-9.52-2.93.43-3.24,9.98-7.45,12.79-8.85.16,1.19-.88,2.27-1.04,3.29-.08.52-.03.61.49.49,2.1-.48,5.9-1.91,7.95-2.79,8.24-3.52,16.01-11.48,20.92-18.88,1.29-1.94,1.8-2.74,1.45-5.3-3.87-.76-5.74,2.14-8.54,4.09-5.67,3.95-11.65,7.4-17.75,10.63-8.49,4.49-20.82,12.16-30.46,8.64-1.13-.41-6.29-2.88-3.73-4.09,14.88-4.8,31.43-8.13,44.88-16.36,6.25-3.82,16.38-11.95,16.95-19.74.38-5.24-3.75-12.44-4.46-17.77l-3.31,5.85c-3.95,6.46-6.07,6.01-12.25,8.86-2.83,1.3-5.22,4.04-8.67,3.12-.9-.24-2.04-1.55-2.52-1.51-.59.05-2.56,1.38-3.51,1.7-5.71,1.88-6.55-1.24-10.84-2.01-7.06-1.26-19.42-1.71-25.69-4.07-.63-.24-2.73-1.41-3.36-1.82-.34-.22-.62.03-.44-.77,9.17-.84,19.17-3.26,26.62-8.85,1.93-1.45,4.35-3.51,5.4-5.67-6.01,3.09-11,7.98-18.04,8.6-5.54.49-13.62-1.94-18.9-3.85-4.03-1.45-8.3-3.42-11.33-6.48,10.26-.15,19.97-2.8,29.3-6.86l7.03-3.52c-8.49.79-16.62,5.7-25.07,6.24-10.3.65-21.65-4.27-28.56-11.78,2.45.37,4.97.81,7.44,1.03,11.94,1.1,24.45,1.18,36.17-1.55.67-.16,4.64-1.06,4.8-1.25.17-.21-.02-.97.04-1.34-9.61.75-18.39,3.14-28.2,2.42-9.69-.72-21.9-7.78-29.06-14.2-.57-.51-2.35-2.38-2.6-2.93-.21-.45,0-.54.45-.46,7.86,1.43,15.67,3.38,23.58,4.45l.2-.87c-10.78-5.15-21.53-12.57-26.65-23.7,5.08,2.26,9.9,5.06,14.99,7.33,11.99,5.33,24.86,9.53,37.96,11.01.35-2.69-.5-3.93-2.87-4.92-6.35-2.64-15.38-3.31-22.31-5.72-13.2-4.59-22.14-14.54-26.72-27.61l2.88,1.62c12.5,9.37,25.46,18.51,39.8,24.91,1,.45,7.08,3.12,7.5,2.71.31-2.36-.58-4-2.44-5.34-4.63-3.34-12.28-6.43-17.51-9.48-12.29-7.16-23.68-15.75-26.04-31.06-.04-.28-.38-2.93.48-2.56s3.14,3.46,3.98,4.33c11.92,12.43,24.73,24.71,39.46,33.73.07-1.11,0-2.2-.36-3.27-1.01-3.07-15.88-13.84-19.37-16.97-10.58-9.48-18.3-20.95-16.22-35.95.06-.43.14-1.88.64-1.94,3.88,10.37,9.7,19.94,16.62,28.54,1.62,2.01,14.61,16.66,15.73,16.44.26-.05.72-.59.19-.87l-15.89-23.59c-.06-.4.58-1.07.86-1.12.95-.17,7.65,9.28,9.12,10.36-3.81-11.62-4.36-23.74,0-35.3.71.32,1.05,1.3,1.3,1.98,1.27,3.37,1.86,7.41,3.19,11,6.39,17.26,22.44,34.08,37.76,43.91,7.37,4.73,17.85,8.63,22.4,16.36,2.47,4.2,2.94,8.42,6.15,12.53,4.02,5.15,6.75,4.56,11.23.21,4.9-4.76,8.14-11.58,8.98-18.35.99-7.96-.97-14.89,9.08-17.57,19.23-5.13,18.55,17.48,23.02,30.13,2.01,5.7,6.02,15.21,13.12,8.95s7.23-15.54,13.61-21.51c4.27-3.99,10.46-5.65,15.58-8.29,17.87-9.24,37.09-29.18,43.69-48.36,1.28-3.72,2.09-7.62,3.37-11.34l1.44,2.88c4.11,11.93,1.11,23.6-3.52,34.84l.02-.08ZM366.33,294.66c.08-.38-.32-.71-.18-1.04.28-.7,10.49-7.71,12.1-9.01,4.73-3.81,9.34-8.17,11.67-13.94.28-.69,1.59-3.68.11-3.69-.44,0-4.91,5.89-5.7,6.75-9.31,10.11-17.29,12.93-28.62,19.48-8.32,4.81-8.31,7.65-13.12,14.91-5.79,8.72-10.48,8.95-20.06,10.05-1.18.14-1.26.28-1.05,1.41.3,1.65,1.7,5.68,2.36,7.35.85,2.15,2.16,4.79,4.07,6.14l-.17-3.11c1.1.48,6.59,6.43,7.44,5.53l-.15-1.75-2.1-6.21c3.64,3.22,6.64,8.23,11.94,8.65l-4.84-7.79c-.14-.42.09-.7.51-.51.69.3,2.94,2.4,3.88,3.05,3.17,2.19,5.99,4.56,10.14,3.87-.74-1.74-10.04-9.16-10.03-9.86,0-.06.66-.74.85-.76.91-.09,7.32,3.82,8.94,4.46,3.29,1.29,6.5,1.9,9.92.63l-14.09-7.87c-.97-.33-.52-1.53.6-1.33,1.94.35,4.44,1.63,6.56,2.11,4.36,1,9.84,1.73,13.5-1.21l-16.06-5.51c-.35-.07-.25-1.03-.21-1.07.34-.35,7.32.96,8.48,1.03,5.4.33,11.8-.32,16.09-3.8l-21.41-2.47-.05-1.34c8.19-.97,17.71-1.99,23.88-7.96l-21.37,1.31-.78-.79c8.99-3.73,20.19-4.6,26.29-13.16l-19.37,7.45h.03ZM229.12,311.27c-4.26.38-9.01-.28-13.32,0,6.6,5.05,15.37,4.28,23.19,3.46l-.04,1.34-14.15,4.89c-.64.63,1.82,1.37,2.15,1.48,6.31,1.97,12.18-.88,18.26-2.17.24,1.14-.65,1.36-1.41,1.87l-12.77,7.12c7.51,2.71,13.65-2.33,19.72-5.88-.74,2.82-2.91,5.03-5.02,6.91-1.59,1.41-4.43,2.94-5.71,4.33-.4.44-.25.73.21.85,1.54.4,5.28-1.07,6.73-1.88,2.5-1.4,6.18-5.35,8.48-6.06.18-.05.56-.1.51.17-.69,1.44-4.78,6.29-4.45,7.54.11.4.56.65.82.93l9.35-8.3c.2,1.81-.9,3.59-1.22,5.36l1.34.13,6.62-15.17c-6.52-1.21-12.49-4.28-16.34-9.79-1.77-2.53-2.8-5.33-4.63-7.83-5.2-7.12-14.07-9.47-21.36-13.94s-13.85-10.18-18.77-17.25c-1.88-.33-.78,1.92-.42,2.88,1.91,5.06,6.09,9.6,10.14,13.05,1.45,1.24,10.69,7.52,10.85,8.18.08.33-.32.78-.32,1.16-5.2-1.07-10.46-4.04-15.53-5.37-.36-.09-1.76-.51-1.75.19,3.11,1.6,6.11,3.29,9.35,4.67,2.1.89,16.05,5.4,16.25,6.24.11.45-.41.86-.86.87l-19.9-1.39c6.14,5.37,14.99,6,22.5,8.47l.34.52c-2.77.97-5.88,2.17-8.82,2.43h-.02ZM292.62,288.78c-.8,2.16.6,4.53-.19,6.9-.27.81-6.78,6.29-8.13,7.79-14.14,15.82-15.71,35.93,1.04,50.54,12.68,11.06,22.71,9.06,30.86-5.48,11.88-21.19-4.15-34.25-7.57-53.8-.96-5.51-.3-10.29-3.97-15.07-4.55-5.93-15.23-4.76-18,2.29-.45,1.14-1.25,5.66-.02,6.12,1.03.39,5.55.39,5.98.7h0ZM289.43,289.87c-1.55.2-2.75,1.85-3.52,3.09-.29.45-2.3,3.81-.72,3.77.39,0,5.73-4.83,5.89-5.19.54-1.16-.53-1.81-1.65-1.66h0ZM207.77,312.36c-1.77-1.39-2.81-3.11-5.34-3.13l-24.01-1.77c-.54,1.66,1.56,1.91,2.94,2.43,6.58,2.46,18.35,4.62,25.29,3.82.92-.11,1.43-.29,1.13-1.35h-.01ZM415.13,308.16l-23.96,1.13c-2.43.22-3.44,2.17-3.72,4.4,9.3.05,19.85.03,27.68-5.53ZM210.95,320.26c.11-.64-.45-1-.85-1.39-3.01-2.87-11.24-1.79-15.19-1.33-3.55.42-7.05,1.29-10.6,1.68l4.78,1.27c7.26,1.41,14.61.72,21.86-.24h0ZM383.98,320.61h26.99c.26-1.48-.23-1.54-1.59-1.69-6.33-.67-14.9-1.81-21.08-1.8-.91,0-4.44,1.54-4.62,2.33-.02.09.25,1.13.3,1.17h0ZM383.29,346.56l-15.92-7.61c-.15.65.36.82.69,1.21,3.67,4.38,9.52,6.75,15.23,6.4ZM211.65,347.95c1.87-1.1,16.16-6.2,16.22-7.09.02-.22-.78-1.05-.66-1.56l-16.26,6.58.7,2.07ZM354.57,347.25l12.31,9.68c.43.1,1.27-1.08,1.37-1.38.28-.81-10.69-8.64-11.97-9.87-.63-.47-1.99,1.17-1.71,1.57ZM238.51,345.9c-1.16,1.39-10.01,7.7-10.22,8.51-.18.67.59,1.74,1.34,1.34,1.21-1.42,9.85-7.71,10.02-8.71.08-.45-.69-1.22-1.14-1.14ZM246.95,345.88l-10.22,12.1c4.08-1.3,7.65-4.12,9.8-7.85.76-1.31,2.36-3.48.42-4.26h0ZM347.88,346.28c-.72.06-1.68.89-1.11,1.67l11.08,11.42c.44-.6,1.82-1.26,1.4-2.07-1.5-1.16-10.57-11.09-11.38-11.02h.01ZM255.94,347.61l-2.03-.31c-.18,1.45-5.2,9.21-4.89,9.64.05.07,1.42.45,1.68.31.56-.32,4.26-8.49,5.24-9.64ZM349.03,358.68l-7.95-11.42c-.46,5.17,3,9.97,7.95,11.42ZM336.24,356.59c.38.27,1.39-.07,1.32-.79-.04-.41-2.96-7.22-3.24-7.52-.37-.41-1.41-.16-1.55.03-.27.36,3.1,8.02,3.47,8.28h0ZM281.2,382.56v-5.88l3.46,3.46c-.02-.96.08-1.94-.03-2.9-1.2-9.81-13.62-3.69-9.14,3.6.79-1.05.69-2.7.87-3.95.05-.35.65-.28.85-.19,1,.43,1.98,4.78,2.78,5.52.44.4.61.42,1.21.35h0ZM315.46,380.83c.24-.28.37-3.26.26-3.9-.28-1.66-1.92-3.95-3.62-4.33-4.63-1.05-7.29,3.44-6.67,7.54l4.15-4.15.35,7.27c.78.14.55-.04.77-.44,1-1.85,1.57-4.39,2.86-6.13.54,1.11.67,2.55,1.18,3.66.13.29.19,1.13.72.49h0ZM299.2,383.25c-2.84,5.51-5.85,2.2-9.13-.67-1.78,1.98-4.56,3.55-6.05,5.74-2.09,3.08-4.45,10.75-5.85,14.56-1.66,4.54-5.02,12.62-5.81,17.03-.14.79-.33,5.97-.12,6.21.04.05,1.09.3,1.25.3,1.78-.05,6.03-8.49,6.83-10.31,3.05-6.87,4.57-14.68,9.18-20.75,2.06,11.09.68,23.11,5.88,33.4l1.79-2.36c2.32-8.63.69-18.63,1.65-27.42.04-.35.17-1.2.54-1.19.26,0,2.45,3.9,2.78,4.48,4.74,8.5,7.66,18.53,15.39,24.92-4.28-15.15-6.25-32.3-17.83-43.94h-.5ZM256.98,419.59c6.29-4.57,11.45-10.82,15.85-17.19.9-1.3,6.72-10.24,6.58-10.96-.08-.43-3.62-3.35-3.87-3.31-8.08,9.08-15.2,19.64-18.56,31.47h0ZM332.41,420.28c.1-1.21-.47-2.3-.97-3.35-3.42-7.12-11.02-19.79-15.63-26.25-1.12-1.57-1.76-2.95-3.94-1.84-.75.38-3.49,2.52-3.18,3.39,7.05,9.97,12.92,21.54,23.72,28.05Z"/>
  <path class="st0" d="M189.15,111.25c5.35,16.12,12.49,31.73,17.64,47.93,1.75,10.35-10.82,13.94-15.28,4.9-7.49-21.48-17.53-42.84-24.52-64.42-1.55-4.79-2.64-9.49,1.39-13.5,7.65-7.61,18.22,3.27,24.53,7.99,12.73,9.53,25.45,20.39,38.49,29.34.33.23,1.39,1.18,1.69.9l-17.12-45.34c-1.52-5.15-2.71-10.76,3.52-13.06,5.71-2.1,8.66,1.55,10.88,6.27,9.54,20.25,15.53,43.99,24.67,64.61,4.06,9.87-4.4,17.53-13.89,13.2-4.49-2.04-12.97-9.42-17.38-12.73-10.84-8.13-21.85-17.66-32.95-25.18-.32-.21-1.42-1.19-1.69-.91h.02Z"/>
  <path class="st0" d="M384.95,72.24c17.16-1.65,41.46,8.37,45.25,26.88,1.53,7.5-.77,18.55-10.84,14.99-5.83-2.06-4.88-9.58-6.49-14.28-4.55-13.29-23.58-16.99-34.08-8.15-17.96,15.13-23.34,49.56,5.53,55.73,6.23,1.33,15.83,2.69,18.87-4.34,1.28-2.96,2.69-6.83-.62-8.72-5.39-3.07-19.31-4.43-15.08-13.9,1.79-4.01,5.62-4.46,9.49-3.35,5.2,1.49,13.65,4.99,18.62,7.33,5.44,2.57,8.24,4.82,6.63,11.37-.98,3.99-6.24,17.82-8.34,21.08-2.81,4.37-8.25,5.43-13.13,5.91-25.96,2.52-55.37-12.74-53.82-42.06,1.12-21.12,14.97-46.29,38.01-48.51v.02Z"/>
  <path class="st0" d="M286.04,72.83v19.73c7.55-.06,15.12.08,22.68.01,4.49-.04,11.22-1.25,15.49.4,4.6,1.79,4.8,9.33.71,11.99-.3.2-2.21,1.09-2.37,1.09h-36.16v23.71c0,.29.84.61,1.19.54l39.08-.33c7.4.51,9.14,11.74,1.88,13.91-5.16,1.55-14.23.76-19.85.91-9.32.26-20.98,1.44-30.11.72-6.76-.53-9.04-4.13-9.52-10.55-.99-13.39-.41-28.03-.66-41.56-.15-7.88-1.39-17.9-.66-25.55,1.22-12.85,16.62-9.35,26.1-9.55,7.19-.15,14.58-.61,21.77-.72,6.54-.1,16.3-.99,14.64,8.76-1.02,6.03-7.24,5.3-11.84,5.81-10.8.02-21.62-.29-32.37.68h0Z"/>
  <path class="st0" d="M124.34,118.25c6.61-1.06,10.93,7.11,6.32,12.21-8.26,9.47-16.86,18.68-24.89,28.33l14.98,12.97c6.84-6.9,12.77-14.7,19.43-21.75,3.37-3.58,7.52-8.96,12.81-5.18,7.4,5.28-.61,12.45-4.49,16.96-5.65,6.56-11.93,12.65-17.15,19.55l.53.87c5.89,4.68,11.09,10.32,17.14,14.72l24.04-27.19c3.26-4.2,8.88-6.48,12.82-1.73,3.53,4.26,1.1,7.84-1.73,11.43-7.75,9.83-18.76,21.9-27.51,30.98-4.13,4.28-8.09,8.36-14.17,4.12-16.27-14.67-34.1-28.74-49.87-43.92-2.54-2.45-6.17-5.78-5.85-9.65.24-2.88,3.03-6.17,4.82-8.34,7.81-9.49,17.45-20.16,25.94-29.09,1.72-1.81,4.35-4.88,6.84-5.27v-.02Z"/>
  <path class="st0" d="M72.44,206.16c6.02-.81,14.52,1.11,14.28,8.72-.26,8.05-10.16,6.63-15.47,9.13-4,1.88-7.37,5.9-8.51,10.17-3.42,12.83,6.49,22.26,16.5,9.92,12.05-14.85,19.78-37.13,43.7-27.02,28.53,12.05,15.18,61.02-12.16,63.06-6.58.49-15.38-.54-14.72-9.18s13.15-6.15,18.92-8.42c10.49-4.13,14.05-26.31,1.22-29.72-6.05-1.61-9.62,2.22-13.02,6.5-10.15,12.79-17.42,32.42-37.93,26.45-28.12-8.2-16.18-56.45,7.19-59.61h0Z"/>
  <path class="st0" d="M487.39,135.91c9.24-.65,15.66,9.58,11.15,17.73-11.2,19.96-20.98,40.84-32.47,60.62-3.23,5.56-7.12,12.86-14.94,9.28-4.77-2.18-5.17-6.58-3.41-11.02,2.07-5.22,5.75-10.31,8.12-15.45.22-.62-.39-1.2-.76-1.7-5.63-7.48-13.04-14.53-19.05-21.78-.98-.5-1.85-.83-2.97-.68-4.8.67-11.22,4.75-16.17,5.66-11.31,2.07-12.27-14.09-2.09-16.62,21.93-7.37,43.25-16.88,65.22-24.06,2.31-.75,4.96-1.8,7.38-1.97h0ZM448.7,166.27l15.05,17.64,17.82-30.63-32.87,12.99Z"/>
  <path class="st0" d="M530.97,205.12c9.02-2.01,13.88,9.61,6.77,15.08-1.51,1.16-3.38,1.78-5.12,2.49-17.97,7.28-37.37,12.65-55.55,19.54-1.49.75-2.13,1.56-1.57,3.31,2.81,9.01,7,18.03,9.63,27.05,1.2,4.11,2.46,9.31-2.05,11.99-4.95,2.94-8.83.47-11.01-4.11-6.09-12.83-9.93-28.94-14.71-42.38-.45-5.88,2.68-7.79,7.52-9.77,21.32-8.71,44.44-15.22,66.1-23.18v-.02Z"/>
  <polygon class="st0" points="296.77 176.65 305.76 202.09 332.76 202.95 311.37 219.78 318.92 245.86 296.31 230.69 273.59 245.86 281.16 219.45 260.09 202.61 287.4 201.88 296.05 177.14 296.77 176.65"/>
  <path class="st0" d="M342.11,513.02c10.16,3.73,15.31,12.76,10.1,23.08-3,5.94-7.69,6.46-13.55,7.9s-14.95,3.73-20.98,4.28c-4.2.38-5.57-1.31-6.61-5.08-3.09-11.25-5.56-27.68-7.27-39.45-.86-5.93-2.45-10.23,4.73-12.02,5.56-1.39,21.69-4.39,26.8-3.58,11.85,1.86,15.35,16.92,6.79,24.87h-.01ZM317.56,513.69c6.3-1.33,21.45-1.41,17.79-11.73-2.07-5.84-9.65-4.02-14.43-3.02-1.55.32-4.61.75-5.28,2.33-.93,2.19,1.64,9.74,1.92,12.43h0ZM321.69,537.94c4.89-.83,15.09-1.96,18.81-5.25,3.32-2.93,1.45-11.53-3.05-12.07-1.31-.15-3.48-.07-4.85.01-4.29.24-8.98,1.28-13.28,1.78l2.37,15.53h0Z"/>
  <path class="st0" d="M132.74,437.58v5.71c0,1.2-1.39,5.1-2.01,6.29-4.48,8.52-14.81,9.35-22.32,4.2-4.46-3.05-15.55-16.59-18.37-21.43-1.09-1.88-1.65-3.11-.82-5.26s8.84-8.03,11.19-9.92c8.83-7.12,17.94-13.89,26.84-20.92,2.12-1.45,4.28-1.85,6.52-.35,2.7,1.81,12.41,14.82,14.69,18.18,4.37,6.43,5.51,12.48.35,18.97-4.16,5.24-9.79,6.07-16.06,4.53h-.01ZM120.33,415.82l.12.99c5.09,4.53,9.89,16.77,18.17,10.21,2.95-2.33,3.19-4.75,1.44-8.02-.67-1.26-7.56-11.31-8.24-11.52-1.18-.36-9.69,7.59-11.5,8.33h0ZM100.95,431.05l.13.98c3.53,3.54,9.53,13.85,14.87,13.85,3.78,0,8.44-4.09,8.14-8.12-.36-4.86-8.04-12.15-10.56-16.44l-12.58,9.73h0Z"/>
  <path class="st0" d="M202.3,507.48l.98-.58c5.72-8.22,10.07-19.79,16.04-27.57,4.2-5.48,10.17-3.87,9.94,3.03-7.08,14.48-15.98,28.12-23.91,42.19-2.8,3.95-7.55,5.89-10.82,1.25-3.47-4.93-2.44-24.49-2.6-31.31-.02-.82-.36-1.58-.37-2.39-.09-3.98.1-7.98,0-11.95-.79-.2-.57.14-.79.43-.53.68-1.08,1.78-1.56,2.57-4.7,7.69-9.02,17.1-14.11,24.3-1.88,2.65-3.55,4.67-7.06,3.31-2.71-1.05-4.64-3.85-3.28-6.73,8.23-13.09,15.06-28.96,23.9-41.51,4.31-6.11,11.76-3.73,12.56,3.3l1.08,41.66h0Z"/>
  <path class="st0" d="M381.49,468.14c25.14-1.96,44.74,42.59,14.73,56.6-14.81,6.91-26.05,1.51-34.81-11.12-13.47-19.43-4.2-43.58,20.08-45.48h0ZM379.75,477.81c-2.97.35-7.24,2.73-9.27,4.93-12.52,13.51,9.1,45.37,25.09,31.32,9.83-8.64,2.34-26.99-7.19-32.93-1.83-1.14-6.63-3.55-8.62-3.31h-.01Z"/>
  <path class="st0" d="M471.53,425.82v6.06c0,.46.88,3.42,1.12,4.07,2,5.4,7.17,5.95,10.53,9.72,5.39,6.04-.68,13.08-7.26,8.81-11.49-9.66-26.04-18.03-37.08-27.98-2.28-2.05-3.64-3.93-2.68-7.16,1.42-4.75,6.31-4.08,9.74-1.97,5.36,3.3,10.17,8.28,15.6,11.56l-6.09-32.99c-.12-5.49,6.14-8.7,9.74-4.04,2.67,3.45,2.79,15.1,3.71,19.82.53,2.73,2.11,2.81,4.6,3.02,8.29.7,17.69.24,25.85,1.49,3.97.61,8.43,2.3,7.38,7.19-.97,4.5-5.2,4.97-9.01,4.82-7.64-.3-15.84-1.86-23.54-2.42-.86-.06-1.73.02-2.59,0h-.02Z"/>
  <path class="st0" d="M422.05,437.06c.44-4.19,3.27-8.4,7.96-6.57,2.45.96,3.22,3.45,3.48,5.87l-1.04,19.55,30.09,8.15c2.08.72,5.15,3.61,5.15,5.88,0,2.53-4.74,6.42-7.39,5.71l-28.21-8.3c-.41,5.16-1.62,10.91,1.73,15.4.96,1.28,2.48,2.04,3.48,3.1,3.18,3.39,7.04,9.62.99,12.44-3.83,1.78-6.35-1.12-8.79-3.59-8.45-8.56-18.24-19.76-25.95-29.07-2.51-3.03-6.98-7.56-3.97-11.6,3.54-4.75,8.91-.2,11.77,2.76,3.7,3.83,6.78,8.33,10.72,11.95v-31.66l-.02-.02Z"/>
  <path class="st0" d="M239.25,482.64c1.49-.2,4.27.72,5.27,1.83,1.14,1.26,1.13,2.91,1.05,4.52-.49,8.87-4.98,20.89-6.48,30.2-1.26,7.84-1.78,13.1,7.16,15.46,10.4,2.74,12.6-2.04,15.13-10.82s3.7-17.6,6.15-26.03c1.13-3.9,2.3-7.89,7.24-7.23,5.9.79,4.33,7.44,3.56,11.45-1.74,9.09-6.15,31.19-11.83,37.66-6.1,6.95-15.86,6.5-24.06,3.98-26.97-8.28-10.49-36.72-7.96-55.73.52-2.31,2.28-4.95,4.77-5.29h0Z"/>
  <path class="st0" d="M164.84,434.56c1.22-.17,2.55-.29,3.67.3.43.22,3.22,3.71,3.27,3.99.1.51-2.21,4.5-2.71,5.14-8.97,11.59-22.89,21.93-32.37,33.39-2.53,1.91-5.09,3.14-7.95,1.04-3.95-2.89-2.42-6.4.18-9.51,9.19-10.98,21.46-20.79,30.95-31.68,1.51-1.27,2.92-2.38,4.94-2.67h.02Z"/>
  <path class="st0" d="M501.56,325.2c18.86-2.58,21.04,25.67,3.02,26.9s-19.45-24.65-3.02-26.9Z"/>
  <path class="st0" d="M91.83,326.94c18.74-2.04,20.18,28.59-.09,26.89-15.81-1.33-15.78-25.16.09-26.89Z"/>
  <path class="st0" d="M97.36,114.45c.25.25.35.78.4,1.14.95,6.78,2.43,17.64-1.42,23.45-4.5,6.8-5.91.17-7.46-4.18-.94-2.62-2.59-6.53-2.14-9.24.17-1.05,1.88-2.98,2.61-3.96,1.32-1.76,4.31-5.65,5.83-6.97.68-.59,1.4-1.04,2.18-.24Z"/>
  <path class="st0" d="M301.88,35.2c1.55-.21,10.46-.18,10.46,1.81-4.93,5.15-11.08,14.81-18.67,15.95-1.26.19-4.56.16-4.49-1.36.28-6.11,6.2-15.52,12.7-16.4Z"/>
  <path class="st0" d="M226.87,460.77c1.03,4.54-3.48,6.17-6.41,8.54-.37.02-4.44-2.68-5.02-3.17-2.01-1.72-4.51-6.58-6.1-7.4-2.73-1.41-4.35,1.95-7.4.99-.67-5.3,4.46-9.43,9.43-7.18,3.16,1.43,4.7,5.24,6.85,7.69,3.7,4.21,4.3-.22,8.64.53h0Z"/>
  <path class="st0" d="M297.46,280.13c-.79,4.33-4.74,3.42-7.96,2.76-.1-.91.02-.55.51-.7,2.46-.74,4.93-1.53,7.45-2.07h0Z"/>
</svg>